P2
# Created by GIMP version 2.10.6 PNM plug-in
100 100 255
27
27
27
27
27
27
27
27
27
27
27
27
27
27
27
27
27
27
27
27
27
27
27
27
27
27
27
27
27
27
27
27
27
27
27
27
27
27
27
27
27
27
27
27
27
27
27
27
27
27
27
27
27
27
27
27
27
27
27
27
27
27
27
27
27
27
27
27
27
27
27
27
27
27
27
27
27
27
27
27
27
27
27
27
27
27
27
27
27
27
27
27
27
27
27
27
27
27
27
27
27
27
27
27
27
27
27
27
27
27
27
27
27
27
27
27
27
27
27
27
27
27
27
27
27
27
27
27
27
27
27
27
27
27
27
27
27
27
27
27
27
27
27
27
27
27
27
27
27
27
27
27
27
27
27
27
27
27
27
27
27
27
27
27
27
27
27
27
27
27
27
27
27
27
27
27
27
27
27
27
27
27
27
27
27
27
27
27
27
27
27
27
27
27
27
27
27
27
27
27
27
27
27
27
27
27
27
27
27
27
27
27
27
27
27
27
27
27
27
27
27
27
27
27
27
27
27
27
27
27
27
27
27
27
27
27
27
27
27
27
27
27
27
27
27
27
27
27
27
27
27
27
27
27
27
27
27
27
27
27
27
27
27
27
27
27
27
27
27
27
27
27
27
27
27
27
27
27
27
27
27
27
27
27
27
27
27
27
27
27
27
27
27
27
27
27
27
27
27
27
27
27
27
27
27
27
27
27
27
27
27
27
27
27
27
27
27
27
27
27
27
27
27
27
27
27
27
27
27
27
27
27
27
27
27
27
27
27
27
27
27
27
27
27
27
27
27
27
27
27
27
27
27
27
27
27
27
27
27
27
27
27
27
27
27
27
27
27
27
27
27
27
27
27
27
27
27
27
27
27
27
27
27
27
27
27
27
27
27
27
27
27
27
27
27
27
27
27
27
27
27
27
27
27
27
27
27
27
27
27
27
27
27
27
27
27
27
27
27
27
27
27
27
27
27
27
27
27
27
27
27
27
27
27
27
27
27
27
27
27
27
27
27
27
27
27
27
27
27
27
27
27
27
27
27
27
27
27
27
27
27
27
27
27
27
27
27
27
27
27
27
27
27
27
27
27
27
27
27
27
27
27
27
27
27
27
27
27
27
27
27
27
27
27
27
27
27
27
27
27
27
27
27
27
27
27
27
27
27
27
27
27
27
27
27
27
27
27
27
27
27
27
27
27
27
27
27
27
27
27
27
27
27
27
27
27
27
27
27
27
27
27
27
27
27
27
27
27
27
27
27
27
27
27
27
27
27
27
27
27
27
27
27
27
27
27
27
27
27
27
27
27
27
27
27
27
27
27
27
27
27
27
27
27
27
27
27
27
27
27
27
27
27
27
27
27
27
27
27
27
27
27
27
27
27
27
27
27
27
27
27
27
27
27
27
27
27
27
27
27
27
27
27
27
27
27
27
27
27
27
27
27
27
27
27
27
27
27
27
27
27
27
27
27
27
27
27
27
27
27
27
27
27
27
27
27
27
27
27
27
27
27
27
27
27
27
27
27
27
27
27
27
27
27
27
27
27
27
27
27
27
27
27
27
27
27
27
27
27
27
27
27
27
27
27
27
27
27
27
27
27
27
27
27
27
27
27
27
27
27
27
27
27
27
27
27
27
27
27
27
27
27
27
27
27
27
27
27
27
27
27
27
27
27
27
27
27
27
27
27
27
27
27
27
27
27
27
27
27
27
27
27
27
27
27
27
27
27
27
27
27
27
27
27
27
27
27
27
27
27
27
27
27
27
27
27
27
27
27
27
27
27
27
27
27
27
27
27
27
27
27
27
27
27
27
27
27
27
27
27
27
27
27
27
27
27
27
27
27
27
27
27
27
27
27
27
27
27
27
27
27
27
27
27
27
27
27
27
27
27
27
27
27
27
27
27
27
27
27
27
27
27
27
27
27
27
27
27
27
27
27
27
27
27
27
27
27
27
27
27
27
27
27
27
27
27
27
27
27
27
27
27
27
27
27
27
27
27
27
27
27
27
27
27
27
27
27
27
27
27
27
27
27
27
27
27
27
27
27
27
27
27
27
27
27
27
27
27
27
27
27
27
27
27
27
27
27
27
27
27
27
27
27
27
27
27
27
27
27
27
27
27
27
27
27
27
27
27
27
27
27
27
27
27
27
27
27
27
27
27
27
27
27
27
27
27
27
27
27
27
27
27
27
27
27
27
27
27
27
27
27
27
27
27
27
27
27
27
27
27
27
27
27
27
27
27
27
27
27
27
27
27
27
27
27
27
27
27
27
27
27
27
27
27
27
27
27
27
27
27
27
27
27
27
27
27
27
27
27
27
27
27
27
27
27
27
27
27
27
27
27
27
27
27
27
27
27
27
27
27
27
27
27
27
27
27
27
27
27
27
27
27
27
27
27
27
27
27
27
27
27
27
27
27
27
27
27
27
27
27
27
27
27
27
27
27
27
27
27
27
27
27
27
27
27
27
27
27
27
27
27
27
27
27
27
27
27
27
27
27
27
27
27
27
27
27
27
27
27
27
27
27
27
27
27
27
27
27
27
27
27
27
27
27
27
27
27
27
27
27
27
27
27
27
27
27
27
27
27
27
27
27
27
27
27
27
27
27
27
27
27
27
27
27
27
27
27
27
27
27
27
27
27
27
27
27
27
27
27
27
27
27
27
27
27
27
27
27
27
27
27
27
27
27
27
27
27
27
27
27
27
27
27
27
27
27
27
27
27
27
27
27
27
27
27
27
27
27
27
27
27
27
27
27
27
27
27
27
27
27
27
27
27
27
27
27
27
27
27
27
27
27
27
27
27
27
27
27
27
27
27
27
27
27
27
27
27
27
27
27
27
27
27
27
27
27
27
27
27
27
27
27
27
27
27
27
27
27
27
27
27
27
27
27
27
27
27
27
27
27
27
27
27
27
27
27
27
27
27
27
27
27
27
27
27
27
27
27
27
27
27
27
27
27
27
27
27
27
27
27
27
27
27
27
27
27
27
27
27
27
27
27
27
27
27
27
27
27
27
27
27
27
27
27
27
27
27
27
27
27
27
27
27
27
27
27
27
27
27
27
27
27
27
27
27
27
27
27
27
27
27
27
27
27
27
27
27
27
27
27
27
27
27
27
27
27
27
27
27
27
27
27
27
27
27
27
27
27
27
27
27
27
27
27
27
27
27
27
27
27
27
27
27
27
27
27
27
27
27
27
27
27
27
27
27
27
27
27
27
27
27
27
27
27
27
27
27
27
27
27
27
27
27
27
27
27
27
27
27
27
27
27
27
27
27
27
27
27
27
27
27
27
27
27
27
27
27
27
27
27
27
27
27
27
27
27
27
27
27
27
27
27
27
27
27
27
27
27
27
27
27
27
27
27
27
27
27
27
27
27
27
27
27
27
27
27
27
27
27
27
27
27
27
27
27
27
27
27
27
27
27
27
27
27
27
27
27
27
27
27
27
27
27
27
27
27
27
27
27
27
27
27
27
27
27
27
27
27
27
27
27
27
27
27
27
27
27
27
27
27
27
27
27
27
27
27
27
27
27
27
27
27
27
27
27
27
27
27
27
27
27
27
27
27
27
27
27
27
27
27
27
27
27
27
27
27
27
27
27
27
27
27
27
27
27
27
27
27
27
27
27
27
27
27
27
27
27
27
27
27
27
27
27
27
27
27
27
27
27
27
27
27
27
27
27
27
27
27
30
38
38
38
38
38
38
38
38
38
38
38
38
38
33
27
27
27
27
27
27
27
27
27
27
27
27
27
27
27
27
27
27
27
27
27
27
27
27
27
27
27
27
27
27
27
27
27
27
27
27
27
27
27
27
27
27
27
27
27
27
27
27
27
27
27
27
27
27
27
27
27
27
27
27
27
27
27
27
27
27
27
27
27
27
27
27
27
27
27
27
27
27
27
27
27
27
27
37
38
39
43
53
54
54
54
54
54
54
54
54
54
54
45
41
38
38
29
27
27
27
27
27
27
27
27
27
27
27
27
27
27
27
27
27
27
27
27
27
27
27
27
27
27
27
27
27
27
27
27
27
27
27
27
27
27
27
27
27
27
27
27
27
27
27
27
27
27
27
27
27
27
27
27
27
27
27
27
27
27
27
27
27
27
27
27
27
27
27
27
27
27
27
27
27
29
34
34
41
46
51
58
74
79
79
79
79
79
79
79
79
79
76
61
53
48
42
35
34
31
27
27
27
27
27
27
27
27
27
27
27
27
27
27
27
27
27
27
27
27
27
27
27
27
27
27
27
27
27
27
27
27
27
27
27
27
27
27
27
27
27
27
27
27
27
27
27
27
27
27
27
27
27
27
27
27
27
27
27
27
27
27
27
27
27
27
27
27
27
27
27
27
27
27
29
33
40
43
49
59
67
75
93
101
102
102
102
102
102
102
102
102
96
78
69
62
50
44
41
35
29
27
27
27
27
27
27
27
27
27
27
27
27
27
27
27
27
27
27
27
27
27
27
27
27
27
27
27
27
27
27
27
27
27
27
27
27
27
27
27
27
27
27
27
27
27
27
27
27
27
27
27
27
27
27
27
27
27
27
27
27
27
27
27
27
27
27
27
27
27
27
27
27
27
35
40
44
55
66
81
91
99
114
127
128
128
128
128
128
128
128
128
117
101
94
85
67
58
46
42
37
27
27
27
27
27
27
27
27
27
27
27
27
27
27
27
27
27
27
27
27
27
27
27
27
27
27
27
27
27
27
27
27
27
27
27
27
27
27
27
27
27
27
27
27
27
27
27
27
27
27
27
27
27
27
27
27
27
27
27
27
27
27
27
27
27
27
27
27
27
27
27
27
34
41
50
64
84
94
105
116
127
139
154
156
156
156
156
156
156
156
156
143
129
119
109
95
87
68
55
42
36
27
27
27
27
27
27
27
27
27
27
27
27
27
27
27
27
27
27
27
27
27
27
27
27
27
27
27
27
27
27
27
27
27
27
27
27
27
27
27
27
27
27
27
27
27
27
27
27
27
27
27
27
27
27
27
27
27
27
27
27
27
27
27
27
27
27
27
27
27
27
37
41
57
71
86
110
126
135
144
156
168
184
188
189
189
189
189
189
189
185
171
158
148
138
127
114
91
76
61
42
37
29
27
27
27
27
27
27
27
27
27
27
27
27
27
27
27
27
27
27
27
27
27
27
27
27
27
27
27
27
27
27
27
27
27
27
27
27
27
27
27
27
27
27
27
27
27
27
27
27
27
27
27
27
27
27
27
27
27
27
27
27
27
27
27
27
27
27
29
34
41
51
71
86
103
125
145
154
164
176
189
203
209
212
212
212
212
212
210
204
192
178
167
157
147
130
107
92
76
55
42
35
31
27
27
27
27
27
27
27
27
27
27
27
27
27
27
27
27
27
27
27
27
27
27
27
27
27
27
27
27
27
27
27
27
27
27
27
27
27
27
27
27
27
27
27
27
27
27
27
27
27
27
27
27
27
27
27
27
27
27
27
27
27
27
27
27
27
31
39
46
63
86
101
119
139
162
173
183
194
209
219
224
227
227
227
227
227
226
220
211
197
186
176
164
144
122
107
91
68
46
40
34
27
27
27
27
27
27
27
27
27
27
27
27
27
27
27
27
27
27
27
27
27
27
27
27
27
27
27
27
27
27
27
27
27
27
27
27
27
27
27
27
27
27
27
27
27
27
27
27
27
27
27
27
27
27
27
27
27
27
27
27
27
27
27
27
28
32
40
57
79
108
124
140
162
186
201
212
220
231
230
229
228
228
228
228
228
228
230
232
222
214
205
188
168
144
129
114
86
58
44
35
29
27
27
27
27
27
27
27
27
27
27
27
27
27
27
27
27
27
27
27
27
27
27
27
27
27
27
27
27
27
27
27
27
27
27
27
27
27
27
27
27
27
27
27
27
27
27
27
27
27
27
27
27
27
27
27
27
27
27
27
27
27
27
27
35
40
44
66
88
119
139
160
182
206
220
229
231
228
226
224
223
223
223
223
223
224
226
228
231
230
225
208
188
164
146
126
95
67
49
42
37
27
27
27
27
27
27
27
27
27
27
27
27
27
27
27
27
27
27
27
27
27
27
27
27
27
27
27
27
27
27
27
27
27
27
27
27
27
27
27
27
27
27
27
27
27
27
27
27
27
27
27
27
27
27
27
27
27
27
27
27
27
27
27
35
44
54
84
102
131
150
171
199
223
228
229
227
224
222
220
219
218
218
218
219
220
222
224
227
228
229
225
205
176
157
137
108
86
61
47
37
27
27
27
27
27
27
27
27
27
27
27
27
27
27
27
27
27
27
27
27
27
27
27
27
27
27
27
27
27
27
27
27
27
27
27
27
27
27
27
27
27
27
27
27
27
27
27
27
27
27
27
27
27
27
27
27
27
27
27
27
27
27
31
38
48
62
92
112
141
160
181
209
228
229
227
224
221
219
217
215
215
215
215
215
216
219
220
224
226
228
230
214
186
167
147
119
94
68
53
40
32
27
27
27
27
27
27
27
27
27
27
27
27
27
27
27
27
27
27
27
27
27
27
27
27
27
27
27
27
27
27
27
27
27
27
27
27
27
27
27
27
27
27
27
27
27
27
27
27
27
27
27
27
27
27
27
27
27
27
27
27
27
35
43
54
70
100
121
151
170
191
218
230
228
225
221
218
215
214
212
211
211
211
212
213
215
217
221
224
227
231
222
196
177
157
128
101
77
60
45
37
27
27
27
27
27
27
27
27
27
27
27
27
27
27
27
27
27
27
27
27
27
27
27
27
27
27
27
27
27
27
27
27
27
27
27
27
27
27
27
27
27
27
27
27
27
27
27
27
27
27
27
27
27
27
27
27
27
27
27
27
27
35
50
67
90
115
135
164
184
207
231
228
225
222
218
213
210
208
206
203
203
203
205
208
209
212
217
220
224
228
232
211
192
171
142
117
95
75
54
37
27
27
28
29
29
29
29
29
29
29
29
29
29
29
29
29
29
29
29
27
27
27
27
27
27
27
27
27
27
27
27
27
27
27
27
27
27
27
27
27
27
27
27
27
27
27
27
27
27
27
27
27
27
27
27
27
27
27
27
27
27
35
50
69
94
126
148
178
197
218
230
226
223
220
216
211
206
203
197
181
181
181
192
202
205
209
215
219
222
226
230
220
204
184
155
128
101
78
54
37
27
27
33
39
39
39
39
39
39
39
39
39
39
39
39
39
39
39
38
27
27
27
27
27
27
27
27
27
27
27
27
27
27
27
27
27
27
27
27
27
27
27
27
27
27
27
27
27
27
27
27
27
27
27
27
27
27
27
27
27
27
35
50
69
94
126
148
180
202
225
229
224
221
217
214
209
203
187
171
157
153
157
167
181
202
208
213
216
220
224
228
227
212
190
159
130
104
84
62
42
37
37
40
44
53
53
53
53
53
53
53
53
53
53
53
53
53
49
42
37
37
30
27
27
27
27
27
27
27
27
27
27
27
27
27
27
27
27
27
27
27
27
27
27
27
27
27
27
27
27
27
27
27
27
27
27
27
27
27
27
27
35
50
69
94
126
148
181
203
227
229
224
220
216
213
208
194
175
155
137
131
137
150
167
192
205
211
215
218
223
227
230
216
196
164
137
112
94
75
54
47
47
51
58
73
76
76
76
76
76
76
76
76
76
76
76
74
66
55
47
41
35
33
31
27
27
27
27
27
27
27
27
27
27
27
27
27
27
27
27
27
27
27
27
27
27
27
27
27
27
27
27
27
27
27
27
27
27
27
27
27
35
50
69
94
126
148
181
203
227
229
224
220
216
212
207
184
164
143
118
108
116
135
155
180
202
209
213
217
222
226
232
220
201
170
146
123
106
89
70
61
61
66
74
93
98
98
98
98
98
98
98
98
98
98
98
94
84
70
59
47
43
40
35
28
27
27
27
27
27
27
27
27
27
27
27
27
27
27
27
27
27
27
27
27
27
27
27
27
27
27
27
27
27
27
27
27
27
27
27
27
35
50
69
94
126
148
181
203
227
229
224
220
216
212
207
184
162
138
111
82
99
119
141
169
198
208
212
216
220
225
230
225
215
187
162
143
129
116
102
98
98
100
105
120
131
131
131
131
131
131
131
131
131
131
131
121
112
102
90
71
63
55
44
39
28
28
28
27
27
27
27
27
27
27
27
27
27
27
27
27
27
27
27
27
27
27
27
27
27
27
27
27
27
27
27
27
27
27
27
27
35
50
69
94
126
148
181
203
227
229
224
220
216
212
207
184
165
144
119
111
110
118
132
159
192
207
211
214
218
222
227
231
229
204
184
164
152
142
131
128
128
129
133
146
160
160
160
160
160
160
160
160
160
160
160
148
139
130
114
99
92
81
59
44
39
39
35
27
27
27
27
27
27
27
27
27
27
27
27
27
27
27
27
27
27
27
27
27
27
27
27
27
27
27
27
27
27
27
27
27
35
50
69
94
126
148
181
203
227
229
224
220
217
213
208
197
179
159
143
137
137
138
142
150
181
203
208
212
216
221
225
228
230
221
202
186
175
165
157
153
153
155
159
169
182
186
186
186
186
186
186
186
186
186
182
170
161
152
136
124
113
100
76
62
52
46
40
33
27
27
27
27
27
27
27
27
27
27
27
27
27
27
27
27
27
27
27
27
27
27
27
27
27
27
27
27
27
27
27
27
35
50
69
94
126
148
180
201
223
229
225
221
218
214
209
203
191
178
164
161
161
161
161
162
179
200
206
210
215
219
223
226
229
228
219
205
195
186
178
175
175
177
180
189
202
207
208
208
208
208
208
208
208
208
202
191
181
171
156
144
130
115
94
81
72
60
50
38
32
27
27
27
27
27
27
27
27
27
27
27
27
27
27
27
27
27
27
27
27
27
27
27
27
27
27
27
27
27
27
27
35
50
69
94
125
147
177
196
217
230
227
223
220
216
211
206
203
198
183
183
183
183
183
183
183
199
205
209
213
216
221
224
226
230
233
221
213
206
199
196
196
198
200
209
219
225
227
227
227
227
227
227
227
226
219
210
200
190
174
162
144
130
111
101
91
76
61
43
38
27
27
27
27
27
27
27
27
27
27
27
27
27
27
27
27
27
27
27
27
27
27
27
27
27
27
27
27
27
27
27
35
50
66
88
113
132
161
181
204
230
229
225
222
218
214
211
209
208
206
206
206
206
206
206
206
206
205
206
209
212
217
220
222
225
228
230
232
232
229
227
227
228
229
232
231
229
229
229
229
229
229
229
229
229
231
232
227
218
205
186
168
156
141
132
116
98
79
51
39
28
27
27
27
27
27
27
27
27
27
27
27
27
27
27
27
27
27
27
27
27
27
27
27
27
27
27
27
27
27
27
35
42
51
67
97
119
149
168
189
216
230
228
225
222
218
216
214
213
212
212
212
212
212
212
212
211
210
210
209
210
213
215
218
221
223
225
226
227
228
229
229
229
228
227
226
224
223
223
223
223
223
223
223
223
226
228
229
231
227
208
194
183
168
158
131
109
88
59
44
39
31
27
27
27
27
27
27
27
27
27
27
27
27
27
27
27
27
27
27
27
27
27
27
27
27
27
27
27
27
27
29
37
46
59
90
110
138
157
178
206
228
229
228
225
222
220
218
216
216
216
216
216
216
216
216
215
215
214
213
212
211
213
215
218
219
221
223
224
224
225
225
225
224
223
222
220
219
219
219
219
219
219
219
220
222
224
226
228
229
226
215
205
186
168
140
120
101
76
61
43
38
33
27
27
27
27
27
27
27
27
27
27
27
27
27
27
27
27
27
27
27
27
27
27
27
27
27
27
27
27
27
35
43
52
80
99
128
147
168
195
219
226
229
228
225
223
221
220
219
219
219
219
219
219
219
219
219
218
217
215
213
213
213
214
216
218
219
220
221
221
221
221
221
220
218
217
216
215
215
215
215
215
215
216
219
221
223
225
228
231
225
218
198
177
150
131
115
91
75
49
42
35
27
27
27
27
27
27
27
27
27
27
27
27
27
27
27
27
27
27
27
27
27
27
27
27
27
27
27
27
27
35
40
44
65
87
119
139
159
181
205
220
229
231
228
226
225
223
223
223
223
223
223
223
223
223
223
222
220
218
216
215
213
211
213
214
215
216
217
217
217
217
217
216
215
213
212
212
212
212
212
212
212
213
216
217
220
222
225
228
230
226
207
188
161
144
129
106
88
56
45
35
27
27
27
27
27
27
27
27
27
27
27
27
27
27
27
27
27
27
27
27
27
27
27
27
27
27
27
27
27
27
31
39
55
77
105
120
135
158
181
196
207
217
231
231
230
229
229
229
229
229
229
229
229
228
228
227
226
224
221
219
216
213
210
209
209
210
211
212
212
211
211
210
209
208
207
205
205
205
205
205
206
208
210
212
215
217
221
223
227
230
223
207
185
167
150
120
98
68
52
42
35
27
27
27
27
27
27
27
27
27
27
27
27
27
27
27
27
27
27
27
27
27
27
27
27
27
27
27
27
27
31
39
44
59
81
96
115
134
158
168
177
189
203
217
223
227
227
227
227
227
227
227
227
229
231
233
231
228
225
223
221
217
213
210
207
205
205
206
206
206
205
205
203
198
190
181
181
181
181
181
183
201
205
208
211
213
216
221
224
227
230
227
205
182
162
134
114
89
67
50
35
27
27
27
27
27
27
27
27
27
27
27
27
27
27
27
27
27
27
27
27
27
27
27
27
27
27
27
27
27
28
31
40
48
67
81
98
120
139
149
158
170
183
197
202
205
205
205
205
205
205
205
205
207
211
216
222
230
229
227
224
220
216
212
209
206
200
189
189
189
189
185
181
174
166
158
157
157
157
159
163
180
195
203
207
210
214
218
222
225
229
229
214
193
174
145
125
96
75
57
40
35
27
27
27
27
27
27
27
27
27
27
27
27
27
27
27
27
27
27
27
27
27
27
27
27
27
27
27
27
27
27
35
40
54
67
82
105
120
129
139
151
163
178
182
183
183
183
183
183
183
183
183
186
191
197
209
222
229
229
227
222
218
215
211
208
199
181
172
170
169
164
159
150
143
136
134
134
134
137
142
160
180
193
201
207
212
216
219
222
227
230
223
203
184
154
134
105
85
67
45
39
27
27
27
27
27
27
27
27
27
27
27
27
27
27
27
27
27
27
27
27
27
27
27
27
27
27
27
27
27
27
27
35
42
51
67
87
98
109
119
131
143
158
160
160
160
160
160
160
160
160
160
164
169
176
189
205
226
230
229
224
221
217
213
209
202
181
154
146
143
138
133
126
119
113
110
110
110
114
121
141
159
176
191
204
209
213
217
220
225
228
233
213
193
163
143
115
97
79
50
39
27
27
27
27
27
27
27
27
27
27
27
27
27
27
27
27
27
27
27
27
27
27
27
27
27
27
27
27
27
27
27
27
35
40
44
55
66
81
92
99
114
127
128
128
128
128
128
128
128
128
128
131
138
147
160
181
205
221
232
227
223
219
216
212
206
197
167
144
122
103
99
92
85
77
73
73
73
80
90
112
130
153
173
191
205
210
215
218
223
226
231
222
207
178
159
128
105
82
50
39
27
27
27
27
27
27
27
27
27
27
27
27
27
27
27
27
27
27
27
27
27
27
27
27
27
27
27
27
27
27
27
27
27
31
39
39
44
52
59
67
87
94
94
94
94
94
94
94
94
94
94
99
108
120
136
157
185
205
220
230
226
221
218
214
208
203
177
154
129
95
61
55
49
44
36
36
36
47
61
82
110
133
152
170
202
208
212
215
220
223
229
227
215
182
159
128
105
82
50
39
27
27
27
27
27
27
27
27
27
27
27
27
27
27
27
27
27
27
27
27
27
27
27
27
27
27
27
27
27
27
27
27
27
28
32
32
40
44
48
53
68
72
72
72
72
72
72
72
72
72
72
79
91
104
123
146
175
195
214
231
227
222
219
215
209
204
180
158
133
98
65
46
35
29
25
25
26
33
44
70
96
120
140
159
190
207
211
214
220
223
229
228
215
182
159
128
105
82
50
39
27
27
27
27
27
27
27
27
27
27
27
27
27
27
27
27
27
27
27
27
27
27
27
27
27
27
27
27
27
27
27
27
27
27
27
27
35
36
37
43
51
51
51
51
51
51
51
51
51
51
51
60
73
89
110
136
166
188
208
231
227
223
219
215
210
205
183
161
136
101
68
42
26
17
16
16
17
21
29
56
83
110
131
151
183
206
210
214
219
223
229
228
215
182
159
128
105
82
50
39
27
27
27
27
27
27
27
27
27
27
27
27
27
27
27
27
27
27
27
27
27
27
27
27
27
27
27
27
27
27
27
27
27
27
27
27
27
27
29
36
36
36
36
36
36
36
36
36
36
36
36
42
55
72
98
126
159
181
202
228
228
224
220
216
210
205
186
165
140
104
71
46
29
17
13
12
14
16
20
41
73
103
126
148
183
206
210
214
219
223
229
228
215
182
159
128
105
82
50
39
27
27
27
27
27
27
27
27
27
27
27
27
27
27
27
27
27
27
27
27
27
27
27
27
27
27
27
27
27
27
27
27
27
27
27
27
27
27
27
27
27
27
27
27
27
27
27
27
27
27
27
38
49
65
94
124
156
178
200
227
229
224
220
216
211
206
186
165
140
106
73
46
29
17
13
9
12
15
20
41
73
103
126
148
183
206
210
214
219
223
229
228
215
182
159
128
105
82
50
39
27
27
27
27
27
27
27
27
27
27
27
27
27
27
27
27
27
27
27
27
27
27
27
27
27
27
27
27
27
27
27
27
27
27
27
27
27
27
27
27
27
27
27
27
27
27
27
27
27
27
27
38
49
65
94
124
156
178
200
227
229
224
220
216
211
206
186
165
140
106
73
46
29
18
15
13
14
16
20
41
73
103
126
148
183
206
210
214
219
223
229
228
215
182
159
128
105
82
50
39
27
27
27
27
27
27
27
27
27
27
27
27
27
27
27
27
27
27
27
27
27
27
27
27
27
27
27
27
27
27
27
27
27
27
27
27
27
27
27
27
27
27
27
27
27
27
27
27
27
27
27
38
49
65
94
124
156
178
200
227
229
224
220
216
211
206
186
166
144
112
82
59
41
23
17
16
17
20
28
55
82
109
131
151
183
206
210
214
219
223
229
228
215
182
159
128
105
82
50
39
27
27
27
27
27
27
27
27
27
27
27
27
27
27
27
27
27
27
27
27
27
27
27
27
27
27
27
27
27
27
27
27
27
27
27
27
27
27
27
27
27
27
27
27
27
27
27
27
27
27
27
38
49
65
94
124
156
178
200
227
229
224
220
217
211
207
191
173
151
121
94
72
54
37
24
24
24
31
42
68
94
118
139
158
189
207
211
214
220
223
229
228
215
182
159
128
105
82
50
39
27
27
27
27
27
27
27
27
27
27
27
27
27
27
27
27
27
27
27
27
27
27
27
27
27
27
27
27
27
27
27
27
27
27
27
27
27
27
27
27
27
27
27
27
27
27
27
27
27
27
27
38
49
65
94
124
156
178
199
225
230
225
221
218
213
209
203
189
170
141
116
94
79
65
49
49
49
58
70
91
116
139
158
176
203
209
212
216
221
224
230
226
213
181
159
128
105
82
50
39
27
27
27
27
27
27
27
27
27
27
27
27
27
27
27
27
27
27
27
27
27
27
27
27
27
27
27
27
27
27
27
27
27
27
27
27
27
27
27
27
27
27
27
27
27
27
27
27
27
27
27
38
49
65
94
124
156
176
194
220
231
227
224
220
215
210
206
198
186
156
130
114
100
85
73
73
73
80
90
112
130
153
173
191
205
210
214
218
223
226
231
222
207
178
159
128
105
82
50
39
27
27
27
27
27
27
27
27
27
27
27
27
27
27
27
27
27
27
27
27
27
27
27
27
27
27
27
27
27
27
27
27
27
27
27
27
27
27
27
27
27
27
27
27
27
27
27
27
27
27
27
38
49
64
89
113
141
161
180
211
233
229
225
222
217
213
209
206
200
177
157
141
128
116
108
108
108
112
119
139
157
175
190
204
209
213
217
220
225
228
233
214
194
164
144
116
98
79
50
39
27
27
27
27
27
27
27
27
27
27
27
27
27
27
27
27
27
27
27
27
27
27
27
27
27
27
27
27
27
27
27
27
27
27
27
27
27
27
27
27
27
27
27
27
27
27
27
27
27
27
27
38
45
56
77
102
132
152
171
201
224
229
227
224
220
215
212
209
205
193
178
161
148
137
131
131
131
134
140
158
178
191
200
207
212
215
219
222
227
229
224
204
185
155
135
106
87
68
46
39
27
27
27
27
27
27
27
27
27
27
27
27
27
27
27
27
27
27
27
27
27
27
27
27
27
27
27
27
27
27
27
27
27
27
27
27
27
27
27
27
27
27
27
27
27
27
27
27
27
27
27
35
40
48
65
93
123
143
162
191
215
228
229
226
222
218
215
212
209
204
194
180
168
158
154
154
154
156
160
178
194
203
207
210
214
218
222
224
228
230
215
194
175
146
126
97
75
57
41
36
27
27
27
27
27
27
27
27
27
27
27
27
27
27
27
27
27
27
27
27
27
27
27
27
27
27
27
27
27
27
27
27
27
27
27
27
27
27
27
27
27
27
27
27
27
27
27
27
27
27
27
27
34
42
53
81
108
128
147
176
200
220
227
230
225
221
218
216
213
209
206
203
196
187
187
187
187
187
189
203
206
209
212
214
218
221
225
228
228
223
200
179
160
131
110
84
64
49
35
27
27
27
27
27
27
27
27
27
27
27
27
27
27
27
27
27
27
27
27
27
27
27
27
27
27
27
27
27
27
27
27
27
27
27
27
27
27
27
27
27
27
27
27
27
27
27
27
27
27
27
27
27
34
40
44
64
95
117
137
164
184
204
221
232
227
223
221
219
216
213
210
208
207
206
206
206
206
206
206
208
210
212
215
217
221
223
227
230
223
206
184
167
149
120
98
67
52
42
35
27
27
27
27
27
27
27
27
27
27
27
27
27
27
27
27
27
27
27
27
27
27
27
27
27
27
27
27
27
27
27
27
27
27
27
27
27
27
27
27
27
27
27
27
27
27
27
27
27
27
27
27
27
28
31
40
55
86
105
121
143
163
187
206
221
230
227
225
223
221
217
215
213
212
211
211
211
211
211
211
213
215
217
219
222
225
227
230
226
209
189
163
146
131
107
89
57
45
36
28
27
27
27
27
27
27
27
27
27
27
27
27
27
27
27
27
27
27
27
27
27
27
27
27
27
27
27
27
27
27
27
27
27
27
27
27
27
27
27
27
27
27
27
27
27
27
27
27
27
27
27
27
27
27
30
39
48
74
91
106
130
151
176
196
213
225
231
228
226
224
221
219
216
215
215
215
215
215
215
215
216
219
220
222
225
228
231
226
219
199
179
151
133
117
93
77
50
42
35
27
27
27
27
27
27
27
27
27
27
27
27
27
27
27
27
27
27
27
27
27
27
27
27
27
27
27
27
27
27
27
27
27
27
27
27
27
27
27
27
27
27
27
27
27
27
27
27
27
27
27
27
27
27
27
29
37
42
60
75
90
118
141
166
185
201
215
228
229
228
227
224
222
220
219
218
218
218
218
218
218
219
222
224
225
227
230
228
217
207
188
169
141
121
102
77
62
43
39
33
27
27
27
27
27
27
27
27
27
27
27
27
27
27
27
27
27
27
27
27
27
27
27
27
27
27
27
27
27
27
27
27
27
27
27
27
27
27
27
27
27
27
27
27
27
27
27
27
27
27
27
27
27
27
27
27
27
36
42
55
72
103
128
151
161
170
187
203
221
226
229
229
227
225
224
224
224
224
224
224
224
225
227
229
229
228
223
203
189
177
163
153
128
107
86
58
43
37
30
27
27
27
27
27
27
27
27
27
27
27
27
27
27
27
27
27
27
27
27
27
27
27
27
27
27
27
27
27
27
27
27
27
27
27
27
27
27
27
27
27
27
27
27
27
27
27
27
27
27
27
27
27
27
27
27
27
27
27
37
48
63
94
115
128
138
147
164
184
201
211
220
233
231
229
229
229
229
229
229
229
229
229
231
233
227
217
203
184
167
154
139
130
115
97
78
50
38
27
27
27
27
27
27
27
27
27
27
27
27
27
27
27
27
27
27
27
27
27
27
27
27
27
27
27
27
27
27
27
27
27
27
27
27
27
27
27
27
27
27
27
27
27
27
27
27
27
27
27
27
27
27
27
27
27
27
27
27
27
37
43
51
75
93
102
112
123
144
164
175
186
196
211
220
226
227
227
227
227
227
227
227
227
220
212
203
192
177
164
146
132
114
104
93
78
62
43
38
27
27
27
27
27
27
27
27
27
27
27
27
27
27
27
27
27
27
27
27
27
27
27
27
27
27
27
27
27
27
27
27
27
27
27
27
27
27
27
27
27
27
27
27
27
27
27
27
27
27
27
27
27
27
27
27
27
27
27
27
27
32
38
44
60
74
83
94
107
129
146
157
167
177
191
204
209
211
211
211
211
211
211
211
210
204
193
183
173
158
146
131
117
96
84
74
62
51
39
33
27
27
27
27
27
27
27
27
27
27
27
27
27
27
27
27
27
27
27
27
27
27
27
27
27
27
27
27
27
27
27
27
27
27
27
27
27
27
27
27
27
27
27
27
27
27
27
27
27
27
27
27
27
27
27
27
27
27
27
27
27
27
33
38
45
53
62
75
90
113
126
137
147
157
171
184
188
189
189
189
189
189
189
189
188
184
172
163
154
138
126
115
102
78
63
53
46
41
34
27
27
27
27
27
27
27
27
27
27
27
27
27
27
27
27
27
27
27
27
27
27
27
27
27
27
27
27
27
27
27
27
27
27
27
27
27
27
27
27
27
27
27
27
27
27
27
27
27
27
27
27
27
27
27
27
27
27
27
27
27
27
27
27
29
37
37
42
54
67
86
95
108
119
128
142
155
155
155
155
155
155
155
155
155
155
155
144
134
125
110
95
87
77
56
43
37
37
34
27
27
27
27
27
27
27
27
27
27
27
27
27
27
27
27
27
27
27
27
27
27
27
27
27
27
27
27
27
27
27
27
27
27
27
27
27
27
27
27
27
27
27
27
27
27
27
27
27
27
27
27
27
27
27
27
27
27
27
27
27
27
27
27
27
27
27
27
37
42
46
58
67
85
94
101
117
128
128
128
128
128
128
128
128
128
128
128
118
109
98
87
67
59
51
42
38
27
27
27
27
27
27
27
27
27
27
27
27
27
27
27
27
27
27
27
27
27
27
27
27
27
27
27
27
27
27
27
27
27
27
27
27
27
27
27
27
27
27
27
27
27
27
27
27
27
27
27
27
27
27
27
27
27
27
27
27
27
27
27
27
27
27
27
27
27
27
27
29
35
40
44
49
61
68
77
95
101
101
101
101
101
101
101
101
101
101
101
96
86
73
62
49
44
41
36
29
27
27
27
27
27
27
27
27
27
27
27
27
27
27
27
27
27
27
27
27
27
27
27
27
27
27
27
27
27
27
27
27
27
27
27
27
27
27
27
27
27
27
27
27
27
27
27
27
27
27
27
27
27
27
27
27
27
27
27
27
27
27
27
27
27
27
27
27
27
27
27
27
30
34
35
42
47
53
60
76
78
78
78
78
78
78
78
78
78
78
78
76
68
56
48
42
36
34
31
27
27
27
27
27
27
27
27
27
27
27
27
27
27
27
27
27
27
27
27
27
27
27
27
27
27
27
27
27
27
27
27
27
27
27
27
27
27
27
27
27
27
27
27
27
27
27
27
27
27
27
27
27
27
27
27
27
27
27
27
27
27
27
27
27
27
27
27
27
27
27
27
27
27
27
28
34
34
38
43
49
49
49
49
49
49
49
49
49
49
49
49
49
46
41
34
34
29
27
27
27
27
27
27
27
27
27
27
27
27
27
27
27
27
27
27
27
27
27
27
27
27
27
27
27
27
27
27
27
27
27
27
27
27
27
27
27
27
27
27
27
27
27
27
27
27
27
27
27
27
27
27
27
27
27
27
27
27
27
27
27
27
27
27
27
27
27
27
27
27
27
27
27
27
27
27
27
27
32
38
38
38
38
38
38
38
38
38
38
38
38
38
38
38
37
27
27
27
27
27
27
27
27
27
27
27
27
27
27
27
27
27
27
27
27
27
27
27
27
27
27
27
27
27
27
27
27
27
27
27
27
27
27
27
27
27
27
27
27
27
27
27
27
27
27
27
27
27
27
27
27
27
27
27
27
27
27
27
27
27
27
27
27
27
27
27
27
27
27
27
27
27
27
27
27
27
27
27
27
27
27
27
27
27
27
27
27
27
27
27
27
27
27
27
27
27
27
27
27
27
27
27
27
27
27
27
27
27
27
27
27
27
27
27
27
27
27
27
27
27
27
27
27
27
27
27
27
27
27
27
27
27
27
27
27
27
27
27
27
27
27
27
27
27
27
27
27
27
27
27
27
27
27
27
27
27
27
27
27
27
27
27
27
27
27
27
27
27
27
27
27
27
27
27
27
27
27
27
27
27
27
27
27
27
27
27
27
27
27
27
27
27
27
27
27
27
27
27
27
27
27
27
27
27
27
27
27
27
27
27
27
27
27
27
27
27
27
27
27
27
27
27
27
27
27
27
27
27
27
27
27
27
27
27
27
27
27
27
27
27
27
27
27
27
27
27
27
27
27
27
27
27
27
27
27
27
27
27
27
27
27
27
27
27
27
27
27
27
27
27
27
27
27
27
27
27
27
27
27
27
27
27
27
27
27
27
27
27
27
27
27
27
27
27
27
27
27
27
27
27
27
27
27
27
27
27
27
27
27
27
27
27
27
27
27
27
27
27
27
27
27
27
27
27
27
27
27
27
27
27
27
27
27
27
27
27
27
27
27
27
27
27
27
27
27
27
27
27
27
27
27
27
27
27
27
27
27
27
27
27
27
27
27
27
27
27
27
27
27
27
27
27
27
27
27
27
27
27
27
27
27
27
27
27
27
27
27
27
27
27
27
27
27
27
27
27
27
27
27
27
27
27
27
27
27
27
27
27
27
27
27
27
27
27
27
27
27
27
27
27
27
27
27
27
27
27
27
27
27
27
27
27
27
27
27
27
27
27
27
27
27
27
27
27
27
27
27
27
27
27
27
27
27
27
27
27
27
27
27
27
27
27
27
27
27
27
27
27
27
27
27
27
27
27
27
27
27
27
27
27
27
27
27
27
27
27
27
27
27
27
27
27
27
27
27
27
27
27
27
27
27
27
27
27
27
27
27
27
27
27
27
27
27
27
27
27
27
27
27
27
27
27
27
27
27
27
27
27
27
27
27
27
27
27
27
27
27
27
27
27
27
27
27
27
27
27
27
27
27
27
27
27
27
27
27
27
27
27
27
27
27
27
27
27
27
27
27
27
27
27
27
27
27
27
27
27
27
27
27
27
27
27
27
27
27
27
27
27
27
27
27
27
27
27
27
27
27
27
27
27
27
27
27
27
27
27
27
27
27
27
27
27
27
27
27
27
27
27
27
27
27
27
27
27
27
27
27
27
27
27
27
27
27
27
27
27
27
27
27
27
27
27
27
27
27
27
27
27
27
27
27
27
27
27
27
27
27
27
27
27
27
27
27
27
27
27
27
27
27
27
27
27
27
27
27
27
27
27
27
27
27
27
27
27
27
27
27
27
27
27
27
27
27
27
27
27
27
27
27
27
27
27
27
27
27
27
27
27
27
27
27
27
27
27
27
27
27
27
27
27
27
27
27
27
27
27
27
27
27
27
27
27
27
27
27
27
27
27
27
27
27
27
27
27
27
27
27
27
27
27
27
27
27
27
27
27
27
27
27
27
27
27
27
27
27
27
27
27
27
27
27
27
27
27
27
27
27
27
27
27
27
27
27
27
27
27
27
27
27
27
27
27
27
27
27
27
27
27
27
27
27
27
27
27
27
27
27
27
27
27
27
27
27
27
27
27
27
27
27
27
27
27
27
27
27
27
27
27
27
27
27
27
27
27
27
27
27
27
27
27
27
27
27
27
27
27
27
27
27
27
27
27
27
27
27
27
27
27
27
27
27
27
27
27
27
27
27
27
27
27
27
27
27
27
27
27
27
27
27
27
27
27
27
27
27
27
27
27
27
27
27
27
27
27
27
27
27
27
27
27
27
27
27
27
27
27
27
27
27
27
27
27
27
27
27
27
27
27
27
27
27
27
27
27
27
27
27
27
27
27
27
27
27
27
27
27
27
27
27
27
27
27
27
27
27
27
27
27
27
27
27
27
27
27
27
27
27
27
27
27
27
27
27
27
27
27
27
27
27
27
27
27
27
27
27
27
27
27
27
27
27
27
27
27
27
27
27
27
27
27
27
27
27
27
27
27
27
27
27
27
27
27
27
27
27
27
27
27
27
27
27
27
27
27
27
27
27
27
27
27
27
27
27
27
27
27
27
27
27
27
27
27
27
27
27
27
27
27
27
27
27
27
27
27
27
27
27
27
27
27
27
27
27
27
27
27
27
27
27
27
27
27
27
27
27
27
27
27
27
27
27
27
27
27
27
27
27
27
27
27
27
27
27
27
27
27
27
27
27
27
27
27
27
27
27
27
27
27
27
27
27
27
27
27
27
27
27
27
27
27
27
27
27
27
27
27
27
27
27
27
27
27
27
27
27
27
27
27
27
27
27
27
27
27
27
27
27
27
27
27
27
27
27
27
27
27
27
27
27
27
27
27
27
27
27
27
27
27
27
27
27
27
27
27
27
27
27
27
27
27
27
27
27
27
27
27
27
27
27
27
27
27
27
27
27
27
27
27
27
27
27
27
27
27
27
27
27
27
27
27
27
27
27
27
27
27
27
27
27
27
27
27
27
27
27
27
27
27
27
27
27
27
27
27
27
27
27
27
27
27
27
27
27
27
27
27
27
27
27
27
27
27
27
27
27
27
27
27
27
27
27
27
27
27
27
27
27
27
27
27
27
27
27
27
27
27
27
27
27
27
27
27
27
27
27
27
27
27
27
27
27
27
27
27
27
27
27
27
27
27
27
27
27
27
27
27
27
27
27
27
27
27
27
27
27
27
27
27
27
27
27
27
27
27
27
27
27
27
27
27
27
27
27
27
27
27
27
27
27
27
27
27
27
27
27
27
27
27
27
27
27
27
27
27
27
27
27
27
27
27
27
27
27
27
27
27
27
27
27
27
27
27
27
27
27
27
27
27
27
27
27
27
27
27
27
27
27
27
27
27
27
27
27
27
27
27
27
27
27
27
27
27
27
27
27
27
27
27
27
27
27
27
27
27
27
27
27
27
27
27
27
27
27
27
27
27
27
27
27
27
27
27
27
27
27
27
27
27
27
27
27
27
27
27
27
27
27
27
27
27
27
27
27
27
27
27
27
27
27
27
27
27
27
27
27
27
27
27
27
27
27
27
27
27
27
27
27
27
27
27
27
27
27
27
27
27
27
27
27
27
27
27
27
27
27
27
27
27
27
27
27
27
27
27
27
27
27
27
27
27
27
27
27
27
27
27
27
27
27
27
27
27
27
27
27
27
27
27
27
27
27
27
27
27
27
27
27
27
27
27
27
27
27
27
27
27
27
27
27
27
27
27
27
27
27
27
27
27
27
27
27
27
27
27
27
27
27
27
27
27
27
27
27
27
27
27
27
27
27
27
27
27
27
27
27
27
27
27
27
27
27
27
27
27
27
27
27
27
27
27
27
27
27
27
27
27
27
27
27
27
27
27
27
27
27
27
27
27
27
27
27
27
27
27
27
27
27
27
27
27
27
27
27
27
27
27
27
27
27
27
27
27
27
27
27
27
27
27
27
27
27
27
27
27
27
27
27
27
27
27
27
27
27
27
27
27
27
27
27
27
27
27
27
27
27
27
27
27
27
27
27
27
27
27
27
27
27
27
27
27
27
27
27
27
27
27
27
27
27
27
27
27
27
27
27
27
27
27
27
27
27
27
27
27
27
27
27
27
27
27
27
27
27
27
27
27
27
27
27
27
27
27
27
27
27
27
27
27
27
27
27
27
27
27
27
27
27
27
27
27
27
27
27
27
27
27
27
27
27
27
27
27
27
27
27
27
27
27
27
27
27
27
27
27
27
27
27
27
27
27
27
27
27
27
27
27
27
27
27
27
27
27
27
27
27
27
27
27
27
27
27
27
27
27
27
27
27
27
27
27
27
27
27
27
27
27
27
27
27
27
27
27
27
27
27
27
27
27
27
27
27
27
27
27
27
27
27
27
27
27
27
27
27
27
27
27
27
27
27
27
27
27
27
27
27
27
27
27
27
27
27
27
27
27
27
27
27
27
27
27
27
27
27
27
27
27
27
27
27
27
27
27
27
27
27
27
27
27
27
27
27
27
27
27
27
27
27
27
27
27
27
27
27
27
27
27
27
27
27
27
27
27
27
27
27
27
27
27
27
27
27
27
27
27
27
27
27
27
27
27
27
27
27
27
27
27
27
27
27
27
27
27
27
27
27
27
27
27
27
27
27
27
27
27
27
27
27
27
27
27
27
27
27
27
27
27
27
27
27
27
27
27
27
27
27
27
27
27
27
27
27
27
27
27
27
27
27
27
27
27
27
27
27
27
27
27
27
27
27
27
27
27
27
27
27
27
27
27
27
27
27
27
27
27
27
27
27
27
27
27
27
27
27
27
27
27
27
27
27
27
27
