P2
# Created by GIMP version 2.10.6 PNM plug-in
100 100 255
162
161
159
158
155
154
155
155
169
163
166
146
109
95
108
107
106
108
109
107
117
116
123
124
127
129
131
132
129
130
132
131
134
134
134
132
134
132
133
133
134
133
129
130
133
132
132
133
134
132
136
130
131
129
131
129
129
128
127
126
121
114
106
126
144
155
160
152
152
155
156
154
153
153
154
156
156
157
161
203
201
216
166
109
113
120
122
122
122
121
122
124
125
122
126
126
123
118
137
162
159
159
157
155
154
153
155
162
170
172
163
140
107
91
103
114
105
105
105
105
109
116
123
124
124
128
130
130
130
129
131
131
133
133
130
132
132
132
133
132
132
132
129
129
132
130
130
132
131
131
132
129
128
128
128
127
129
128
127
124
120
113
105
119
140
153
160
154
152
154
155
153
148
153
153
153
155
155
155
191
214
217
171
117
114
120
122
122
122
121
124
124
123
123
125
125
126
123
118
94
157
151
156
156
155
145
153
165
169
168
161
136
106
90
96
111
106
106
103
103
113
116
120
123
126
127
128
130
131
130
129
131
131
132
131
131
132
131
132
131
131
132
130
130
130
129
130
133
132
130
130
131
129
128
128
128
127
128
128
125
121
114
109
112
131
148
158
158
156
158
159
152
156
155
148
148
152
153
152
163
205
217
213
158
106
113
122
120
121
120
121
122
123
124
125
126
130
113
63
47
150
153
156
157
155
155
163
167
166
165
156
137
107
93
101
107
106
113
104
103
115
115
119
123
126
127
129
131
130
131
130
131
132
133
134
132
132
132
132
132
132
132
132
129
131
129
130
134
135
132
130
131
129
129
128
127
128
129
128
127
123
116
113
106
119
142
145
160
161
160
162
161
158
158
154
148
152
152
151
150
183
214
219
200
124
115
116
119
123
123
122
123
125
127
130
132
108
58
48
47
156
156
157
158
156
157
165
162
161
161
156
139
112
98
97
105
105
112
102
103
108
113
119
122
124
127
129
130
130
130
129
130
131
131
131
130
130
131
130
130
130
128
129
130
129
128
128
132
134
131
130
130
129
128
127
126
126
127
127
126
123
120
111
107
113
138
145
152
163
161
161
161
159
156
155
154
152
152
151
149
151
201
217
218
173
109
112
118
119
122
121
123
128
131
135
110
58
102
89
50
152
155
156
158
158
164
167
155
159
160
158
138
104
86
96
103
105
105
103
103
108
113
120
122
125
127
127
128
128
129
130
130
129
129
131
128
130
133
133
128
125
124
126
128
126
127
126
128
130
131
131
130
127
127
127
126
126
126
127
126
123
121
112
107
115
134
151
157
162
161
158
159
159
156
156
153
153
144
151
150
147
176
205
213
209
138
110
117
122
124
123
123
126
133
114
70
54
45
63
53
151
155
155
160
164
168
168
164
159
160
159
138
105
90
97
103
106
105
102
102
107
113
119
122
124
126
127
128
127
127
129
130
130
130
129
130
128
131
130
128
124
123
123
125
125
124
124
128
129
129
132
129
127
128
127
126
126
126
127
127
123
119
118
109
115
132
146
155
159
160
158
159
158
156
156
153
155
152
154
151
147
147
182
200
206
192
115
113
117
121
122
125
130
109
100
99
73
51
50
53
160
145
162
156
167
163
165
161
159
153
157
137
103
86
96
102
102
103
102
103
107
114
118
120
122
124
126
127
126
125
127
128
128
127
129
131
129
129
128
126
125
123
123
124
122
120
121
125
128
130
131
128
128
128
127
126
125
126
126
126
123
120
116
110
113
130
143
151
151
155
157
157
156
156
155
157
156
155
154
150
147
142
167
212
222
217
157
105
113
119
124
128
106
52
80
57
57
52
97
48
161
161
162
168
163
155
158
160
160
153
157
137
101
85
96
103
112
103
112
102
106
113
119
121
125
124
125
125
125
126
128
128
126
128
129
129
128
128
128
126
128
125
124
127
128
124
120
121
124
127
127
127
127
127
128
127
127
127
126
125
122
119
119
111
113
127
141
147
152
154
156
155
155
154
154
154
155
147
144
146
144
141
145
194
218
208
201
120
108
114
124
107
55
49
80
56
57
56
47
46
162
160
160
163
147
147
148
162
161
158
155
139
104
86
95
101
105
103
103
103
109
113
119
124
124
124
126
126
127
129
129
128
126
130
131
129
128
127
133
135
138
141
144
160
174
176
175
161
145
125
120
123
124
128
130
128
126
127
127
126
122
118
115
112
111
126
140
142
147
151
154
154
153
145
151
154
152
150
147
144
143
142
142
162
210
221
204
170
110
118
102
52
80
81
74
98
82
95
80
47
160
162
168
162
139
135
145
163
162
156
159
139
102
106
93
100
103
103
103
105
109
115
120
122
124
127
125
126
129
127
129
128
127
127
128
127
129
139
148
145
147
158
162
171
180
177
170
175
185
185
167
130
119
123
126
127
127
126
124
123
120
119
114
110
110
128
141
143
145
148
152
153
152
152
150
150
148
145
144
137
137
141
141
142
183
202
214
208
143
105
99
43
73
50
53
52
62
71
72
45
144
167
167
152
128
126
151
164
164
165
159
134
110
80
97
104
104
106
111
107
114
114
118
121
123
123
123
126
126
127
127
125
133
140
139
127
132
139
141
144
149
151
158
162
169
173
164
176
185
182
194
191
158
120
123
124
122
124
122
120
116
113
110
106
111
127
142
146
144
147
148
152
152
142
147
145
146
144
143
141
140
140
141
140
147
205
223
227
188
60
42
45
51
53
53
50
66
78
47
47
166
171
159
132
102
122
152
166
165
165
160
140
105
78
87
94
98
100
106
106
106
111
117
118
120
122
124
124
125
125
129
132
134
130
124
123
129
133
130
135
143
150
158
158
167
174
181
183
174
185
190
195
197
177
128
116
118
120
119
118
117
117
110
103
108
128
139
148
145
146
146
147
150
150
143
142
144
144
143
142
141
141
143
143
140
173
219
226
158
42
44
48
53
54
48
45
51
46
48
51
171
167
149
116
82
122
152
166
165
164
158
137
100
76
87
94
99
99
100
102
105
109
114
121
119
121
122
123
125
124
125
115
119
120
123
120
129
131
130
135
136
141
149
160
165
164
180
184
185
179
189
195
197
195
193
151
107
109
112
115
117
110
112
104
107
128
145
151
149
145
142
140
141
149
144
142
144
146
142
142
141
143
142
138
145
150
201
172
58
43
45
51
92
52
47
52
99
48
56
37
171
159
134
97
119
122
144
166
158
164
157
137
98
76
88
96
99
102
119
100
104
109
113
121
117
120
120
123
123
133
126
114
113
116
122
125
128
131
135
134
136
139
144
155
162
172
180
183
189
189
180
196
196
195
197
197
161
125
108
109
111
107
107
119
115
128
148
153
153
148
137
130
130
144
141
143
146
146
142
142
143
144
141
146
146
152
135
61
44
97
52
124
62
98
55
49
99
62
49
79
160
144
110
84
86
123
151
166
168
164
150
137
97
77
87
98
98
110
100
111
105
110
115
118
117
122
122
121
124
135
114
115
113
117
119
125
125
129
130
135
132
135
142
152
161
168
182
186
186
190
192
193
190
194
203
212
218
218
131
102
115
102
106
107
105
128
148
155
155
152
137
113
109
132
144
145
145
146
143
143
144
144
141
148
152
141
66
44
45
49
52
49
45
54
50
48
64
62
66
143
154
131
88
85
88
123
151
166
159
165
155
134
98
77
89
95
100
99
101
102
104
110
114
115
118
120
122
122
126
116
109
116
118
119
121
121
121
126
132
133
132
137
139
150
155
177
181
171
186
184
183
193
205
210
209
210
211
221
201
114
95
99
99
97
103
126
146
154
149
150
140
106
77
111
139
147
144
146
143
143
145
145
145
149
150
88
41
77
49
53
51
46
50
51
96
57
71
72
127
148
136
100
86
88
100
127
149
165
166
166
156
133
99
78
89
95
98
101
104
100
105
115
114
116
119
121
122
125
117
108
110
114
118
117
118
117
123
128
136
132
137
141
144
149
159
170
177
177
173
188
207
209
196
202
197
198
200
211
222
180
86
91
99
104
110
125
146
155
153
152
142
110
56
100
124
145
146
145
143
144
142
141
146
152
114
52
55
79
55
54
48
51
52
46
58
69
81
123
149
143
114
88
100
89
88
121
150
163
167
165
157
134
113
78
91
98
98
99
121
100
104
109
114
117
118
120
124
121
109
112
113
117
120
114
113
123
128
131
134
141
144
143
140
143
157
160
162
171
201
203
203
208
203
200
203
206
210
198
218
220
147
81
84
89
99
126
147
155
154
154
144
113
54
61
106
134
146
145
142
143
144
145
148
136
54
46
99
96
53
48
47
56
49
52
60
81
118
142
146
153
90
89
97
90
88
119
148
162
166
164
157
134
99
84
89
97
100
99
99
102
113
109
115
116
118
122
128
113
113
118
112
117
116
119
121
128
127
135
137
136
141
137
138
143
157
150
176
195
200
204
191
194
197
188
202
203
204
209
211
214
216
178
89
81
95
125
147
155
154
154
146
111
56
47
78
120
142
147
143
141
140
142
147
83
40
44
55
56
66
61
55
48
52
55
66
114
143
147
153
163
87
92
92
91
91
121
148
162
165
164
150
135
100
99
88
95
97
101
99
100
103
109
114
118
118
127
127
105
108
115
113
114
119
120
127
132
139
140
140
140
137
134
135
134
146
183
188
194
193
193
176
192
201
203
205
207
207
206
209
209
213
219
171
67
89
123
145
154
154
154
144
112
60
42
53
115
131
140
140
140
139
149
117
44
44
49
55
54
90
91
104
106
53
84
111
143
141
148
164
164
90
92
92
90
89
120
149
161
164
163
158
132
113
78
87
94
98
100
107
104
104
109
114
115
112
155
119
105
108
111
115
115
118
124
126
136
140
132
138
139
132
124
129
161
183
184
190
192
187
190
193
187
204
204
199
205
205
205
205
205
213
217
217
127
80
119
144
153
153
153
142
113
77
45
43
71
103
140
158
146
150
136
61
44
95
54
53
53
50
95
50
54
45
86
141
143
143
159
162
154
91
90
89
102
98
121
148
162
164
163
159
136
101
76
86
92
95
99
99
101
106
108
112
116
113
181
107
104
108
113
115
115
120
127
133
135
137
133
137
127
121
132
169
188
173
180
185
180
188
186
196
196
191
199
191
201
203
201
207
208
208
212
201
185
78
117
144
146
151
152
143
114
88
45
41
42
145
205
205
203
205
130
44
47
53
92
55
96
53
49
56
96
98
133
146
142
158
161
160
158
99
97
90
93
89
117
147
162
165
163
158
135
97
73
83
91
96
97
97
99
110
108
110
108
146
177
110
104
109
114
115
118
124
129
130
128
131
134
126
114
145
172
177
180
177
174
182
187
188
192
195
183
193
195
198
202
204
203
202
201
207
207
213
220
134
110
143
152
154
154
145
111
59
40
63
154
198
195
214
223
228
166
44
47
54
63
52
60
69
52
54
65
122
149
143
156
162
160
159
157
92
92
107
95
90
115
140
163
167
165
158
135
96
74
81
94
99
100
100
100
103
107
112
110
176
163
106
103
109
115
113
119
128
124
120
130
130
123
114
152
174
173
167
171
173
174
177
190
189
177
191
187
193
197
198
185
200
186
199
198
205
206
207
216
194
109
141
155
157
155
143
105
98
125
185
191
198
211
211
212
220
197
47
96
52
52
48
62
71
54
51
95
148
141
150
153
159
159
158
158
108
95
98
108
95
118
146
156
168
167
160
138
98
77
86
108
99
101
102
102
106
109
112
107
190
147
101
103
111
108
118
123
120
120
130
132
127
117
150
166
165
165
150
178
180
177
186
184
185
181
179
188
196
197
196
195
200
198
196
191
195
203
204
207
212
175
141
152
155
152
135
94
134
196
190
190
195
208
202
192
219
201
49
49
54
47
46
97
51
46
62
138
149
149
160
158
158
151
156
150
99
99
106
102
96
118
147
162
167
168
163
140
102
78
87
96
100
102
103
100
114
109
112
114
182
136
102
107
116
110
111
117
121
127
124
120
117
149
157
152
155
163
168
176
180
179
178
182
173
177
182
188
187
193
194
197
199
183
182
198
201
201
201
198
203
210
180
152
151
146
139
183
198
193
207
199
202
201
204
201
217
188
47
49
52
51
45
51
52
42
111
152
147
158
160
157
156
156
155
154
100
100
99
99
99
121
147
162
169
171
165
137
114
78
89
96
99
101
101
100
103
107
107
125
193
135
108
104
103
102
112
113
122
118
119
124
144
152
147
147
152
163
174
158
166
175
181
167
176
177
183
179
181
183
191
177
183
184
187
193
196
195
195
196
192
194
197
153
153
179
202
191
198
208
204
201
202
203
207
214
221
164
99
51
50
47
44
50
92
117
136
148
153
161
159
158
157
156
155
153
100
100
99
100
100
121
149
165
162
173
168
141
101
78
96
103
99
100
98
99
101
105
102
147
194
144
120
105
106
107
112
118
118
124
122
145
150
141
141
145
159
163
161
168
173
169
159
174
175
174
175
174
178
187
179
179
187
182
189
192
191
187
187
176
182
185
189
182
197
193
196
203
206
202
200
202
205
201
204
213
222
136
47
50
53
45
48
53
69
124
149
148
159
160
159
156
150
148
148
154
100
99
97
98
99
119
144
167
173
174
168
142
101
77
87
95
98
99
98
98
101
105
99
165
192
149
126
116
106
108
109
119
122
119
141
145
143
136
144
147
144
152
168
171
165
166
172
171
171
160
175
164
167
180
182
181
180
177
187
185
180
175
184
172
170
176
191
188
195
202
207
185
200
199
186
203
203
184
200
211
213
92
44
48
52
45
53
50
99
143
146
155
161
160
159
157
158
157
156
157
97
110
97
109
98
119
145
167
173
163
167
143
102
79
106
100
106
115
99
98
101
103
98
152
187
158
140
125
109
102
111
117
114
139
140
142
129
141
149
150
145
150
158
159
166
172
168
157
171
171
165
168
168
171
173
179
183
183
182
176
181
173
170
169
184
191
190
198
203
199
197
186
199
200
190
204
182
157
178
194
185
48
48
50
49
125
50
69
133
148
151
160
161
160
160
157
155
157
158
157
97
97
106
95
98
121
147
167
171
171
166
144
101
78
89
104
100
98
98
98
108
104
93
172
183
161
146
136
110
99
109
115
138
136
137
126
136
147
139
144
148
153
147
156
160
166
166
166
162
166
165
162
161
167
173
170
176
172
166
159
172
162
172
184
186
198
202
198
193
192
197
200
200
196
199
198
162
168
149
191
136
41
54
97
46
48
59
112
149
147
157
161
160
159
158
158
152
157
157
157
97
101
97
94
99
123
148
157
171
172
167
145
104
79
90
96
98
97
98
104
100
99
88
180
185
165
150
138
121
115
114
137
135
132
128
137
145
140
137
139
148
143
149
150
158
158
154
148
162
158
152
162
155
165
167
167
164
163
155
161
149
181
182
191
197
195
192
192
196
185
201
203
197
204
208
171
164
154
158
198
81
46
49
59
52
50
80
142
147
144
159
159
149
150
151
157
153
157
156
156
97
104
96
98
105
124
147
167
172
172
167
147
103
76
94
104
97
95
98
105
99
97
84
187
193
174
152
149
135
127
132
130
133
123
128
139
141
131
132
146
139
150
148
133
129
138
138
140
120
153
162
157
155
161
160
152
155
157
152
174
180
185
195
197
189
189
193
196
198
202
203
203
198
208
194
157
132
114
167
181
98
48
50
50
57
57
113
150
147
157
160
158
156
156
157
156
152
149
155
155
105
103
98
100
111
127
151
168
173
173
169
148
103
74
86
96
97
99
106
106
108
96
83
159
190
180
159
147
144
118
121
128
118
131
135
135
127
130
139
134
147
142
124
133
115
96
97
160
150
120
120
127
128
119
118
101
81
153
173
172
187
200
183
195
193
193
197
200
201
203
194
200
207
199
152
104
92
136
188
110
79
47
46
50
52
75
140
147
154
160
159
158
157
157
156
155
154
155
148
154
99
111
99
101
108
128
153
169
173
173
169
148
104
75
86
95
98
99
100
98
100
97
87
168
192
192
157
127
133
112
121
112
127
136
135
127
130
133
130
141
131
130
133
112
114
104
92
126
125
91
83
93
103
59
46
51
107
165
175
196
197
194
194
195
192
195
198
200
199
205
205
189
150
114
91
96
143
189
162
44
74
50
47
52
45
108
146
143
160
160
160
160
158
155
148
154
155
154
154
154
101
103
98
100
109
128
152
169
171
173
169
148
103
77
86
95
98
98
100
98
99
105
89
150
206
194
154
128
139
126
110
120
134
132
124
128
134
128
137
132
121
131
114
114
93
72
65
95
105
95
100
76
75
54
43
124
152
175
189
168
194
183
176
188
192
194
196
200
202
197
143
94
88
108
119
155
182
135
101
47
50
47
52
54
61
130
142
155
163
162
160
160
158
151
156
155
154
154
154
149
105
112
112
103
113
127
151
167
168
171
168
149
105
76
92
94
96
97
103
98
99
102
95
117
204
196
167
135
145
121
116
132
133
121
127
130
125
135
136
121
128
105
81
82
66
52
88
109
69
86
88
74
71
67
138
150
175
188
182
186
188
184
183
188
191
194
197
191
150
125
127
115
133
154
166
177
127
47
50
53
50
44
55
56
99
147
147
162
164
154
162
160
159
158
156
156
155
155
154
149
107
105
109
100
104
125
151
168
165
172
168
148
119
76
137
94
96
99
107
98
98
108
99
91
193
198
185
158
142
111
133
135
115
123
126
124
127
122
124
130
96
72
75
52
52
55
104
68
80
103
76
57
85
137
145
182
190
181
183
178
178
182
180
191
193
195
153
119
110
112
151
164
168
171
189
149
46
47
54
89
63
49
52
56
130
145
154
165
165
165
162
161
151
153
157
156
155
155
154
152
107
106
104
100
102
122
151
169
162
172
169
144
110
73
93
92
108
96
97
96
97
107
116
97
152
208
181
175
131
126
128
119
124
125
121
126
133
118
84
82
76
75
56
82
43
76
68
56
78
89
88
101
128
143
187
193
187
176
181
178
177
179
189
190
184
133
82
96
115
121
137
162
174
184
131
48
46
51
55
54
47
73
51
84
137
142
163
166
156
164
163
154
161
157
157
158
157
155
153
152
108
106
110
103
106
121
149
168
172
174
170
137
106
74
83
91
97
97
104
114
99
104
106
103
94
189
195
183
133
125
124
121
129
127
124
124
121
98
103
85
81
47
64
92
64
97
58
67
63
81
102
123
123
184
192
188
181
173
179
167
174
173
185
185
193
164
102
102
102
126
130
169
163
99
44
45
53
52
55
100
46
82
59
111
130
146
167
165
163
163
163
158
157
160
159
159
150
156
154
152
108
107
112
100
93
115
148
158
173
173
171
149
108
72
82
91
96
102
96
98
100
105
111
110
101
151
208
191
138
121
114
125
120
122
128
122
104
87
68
84
71
53
70
105
65
48
51
58
76
97
88
123
160
177
175
178
172
175
175
174
175
187
187
182
198
188
117
78
91
103
136
149
88
42
45
51
56
99
55
52
49
51
75
126
126
155
167
166
164
163
163
162
162
161
152
152
157
157
154
152
113
105
103
98
91
113
142
167
163
174
171
150
108
73
84
93
98
114
99
98
99
105
113
113
105
145
200
186
118
120
124
113
130
132
120
86
75
82
47
66
73
71
63
88
88
48
46
42
72
117
133
155
179
184
181
159
169
177
166
173
188
196
196
193
199
193
144
80
84
132
131
145
74
45
46
96
57
61
52
45
72
84
123
132
133
157
165
165
165
162
162
163
162
161
160
159
158
158
155
152
104
105
102
99
93
113
147
166
166
173
170
147
109
74
84
94
109
100
100
99
102
112
113
114
108
130
214
154
108
113
116
124
121
114
106
57
74
46
48
54
72
70
70
53
110
67
39
115
141
142
160
159
179
188
166
160
173
167
165
182
193
185
197
193
207
204
163
91
43
68
127
152
57
47
50
54
58
61
48
46
49
62
128
133
141
149
155
160
163
162
161
161
163
162
159
158
158
149
155
152
104
103
102
99
94
113
147
166
169
172
172
149
111
76
84
94
101
103
102
99
100
123
122
115
113
111
202
136
117
112
125
129
105
81
60
70
103
90
58
50
54
59
82
104
109
40
58
132
133
174
164
154
177
184
170
168
159
161
164
188
195
199
202
206
196
209
182
108
51
50
102
154
68
51
53
81
80
88
107
51
48
86
138
140
161
154
152
145
151
154
156
154
157
162
160
158
156
156
152
148
105
110
99
97
92
114
145
167
173
161
167
151
111
80
89
96
100
102
102
101
103
114
114
119
118
115
157
157
112
126
129
122
88
64
63
89
75
55
59
100
58
53
77
76
97
67
124
138
167
184
176
149
184
180
164
157
161
170
177
178
187
200
204
206
210
212
195
124
62
42
89
153
103
51
56
58
61
56
48
53
50
120
138
146
165
161
157
153
151
151
148
147
143
154
144
155
154
153
153
151
102
104
99
97
92
113
145
158
174
165
171
152
109
78
88
108
102
102
104
102
105
113
119
116
114
116
122
127
123
130
125
91
63
61
67
51
58
75
57
49
63
60
54
75
48
117
139
163
159
180
175
153
163
156
159
161
169
174
179
188
193
198
201
204
209
212
204
145
102
42
67
153
112
52
57
61
61
50
51
50
74
135
135
159
162
162
160
163
158
158
154
147
147
145
143
145
142
151
150
148
102
101
98
96
92
111
147
160
174
176
173
152
109
77
86
96
101
112
102
111
105
114
121
119
121
140
116
137
124
126
116
68
77
66
78
48
75
71
44
50
62
74
67
95
90
119
166
171
157
181
180
176
142
145
158
165
174
178
177
182
192
196
196
201
205
210
190
155
108
61
96
146
101
61
61
64
59
50
53
48
101
136
141
161
162
161
160
163
159
163
157
154
150
146
144
139
142
143
145
147
105
102
109
104
93
109
147
158
175
177
173
146
110
78
86
95
107
103
110
103
103
111
118
124
145
139
51
80
157
106
78
84
84
92
72
50
59
57
48
50
69
73
61
72
128
164
171
181
154
188
180
133
124
116
98
114
151
172
177
175
187
193
179
196
199
193
161
111
66
41
54
136
120
60
62
64
54
49
53
86
127
133
151
161
151
158
155
157
160
161
156
155
155
153
152
149
144
142
136
136
116
103
102
108
100
108
145
167
174
176
175
153
111
79
88
97
117
101
100
101
102
108
119
138
144
136
93
96
121
92
71
84
97
74
85
58
53
77
51
46
59
76
48
119
153
173
184
172
179
169
124
133
126
145
111
96
89
124
163
169
183
193
190
184
154
112
109
109
85
52
50
126
130
74
83
63
50
97
54
72
133
134
158
160
158
157
147
154
157
156
152
154
154
155
155
155
144
147
139
134
100
101
99
97
87
107
145
167
176
177
173
154
113
77
84
95
111
101
99
110
98
119
142
147
152
155
140
91
74
96
100
79
92
52
72
66
47
62
85
96
45
42
92
140
174
185
196
183
156
102
76
65
56
82
89
98
125
126
143
154
180
197
192
152
100
71
56
62
66
52
50
119
135
82
86
57
49
83
68
97
136
142
159
158
153
154
155
155
156
157
154
153
154
153
148
153
147
146
142
137
96
95
94
90
81
103
143
168
175
177
173
152
111
74
85
108
110
97
97
93
98
182
156
146
144
127
69
50
91
84
82
89
105
100
57
73
63
96
77
74
50
52
125
169
175
194
195
157
76
74
58
50
62
150
110
59
112
126
137
153
184
208
164
65
62
113
87
58
95
47
51
112
138
73
67
62
49
51
62
119
139
154
158
155
139
152
153
155
154
148
153
153
147
147
149
146
143
139
137
134
100
97
103
89
78
115
144
169
177
172
176
152
112
78
89
98
101
101
102
94
75
151
167
163
122
94
49
82
73
94
101
101
102
47
46
55
82
44
48
42
43
94
141
170
185
199
173
108
84
57
97
77
83
188
193
109
109
117
133
147
192
206
110
78
77
137
127
61
99
46
60
107
144
97
69
92
52
49
104
136
140
156
157
156
142
150
152
153
153
146
152
150
149
146
145
140
136
131
131
136
100
98
101
89
77
97
143
168
179
177
167
154
114
83
93
103
114
115
84
78
109
159
193
164
70
55
92
74
61
96
88
105
116
58
48
44
56
50
90
54
69
124
167
180
197
166
123
127
135
104
108
121
154
193
178
138
124
123
129
152
203
195
118
124
125
154
112
103
113
71
64
99
152
93
64
48
51
50
90
138
146
157
155
153
146
153
157
152
154
152
150
149
146
142
140
134
135
148
165
175
103
102
96
101
76
95
139
168
178
182
179
158
121
98
95
112
114
125
82
132
142
134
111
52
78
106
99
77
68
82
76
112
120
92
45
45
47
48
46
38
114
135
175
194
171
111
131
139
145
141
136
121
131
132
156
158
129
128
128
147
199
204
156
138
130
106
78
81
55
49
84
96
159
86
60
48
54
55
117
135
153
157
154
152
150
151
154
151
152
152
147
144
140
137
135
145
168
183
188
188
101
102
89
87
70
89
141
167
168
182
180
158
118
99
97
106
109
114
147
142
95
80
67
66
63
108
113
80
53
74
100
99
112
85
51
46
46
48
42
83
125
161
187
180
110
119
137
145
154
155
147
148
151
159
163
159
135
135
129
142
189
210
173
151
137
121
108
98
60
49
70
88
164
87
57
48
95
60
130
136
156
155
153
150
145
151
150
150
150
143
145
142
137
135
161
185
191
191
189
189
94
115
83
78
65
86
140
167
178
181
179
158
117
82
92
103
110
119
127
140
121
87
124
99
102
98
94
45
52
94
92
122
123
90
59
48
44
49
48
121
148
179
182
94
106
124
137
150
161
166
172
169
171
171
170
157
141
137
129
136
180
214
178
154
144
132
122
108
63
99
64
79
169
98
53
47
60
113
134
143
157
148
152
152
151
152
144
149
147
144
141
138
135
164
190
197
193
190
189
178
88
92
99
75
63
87
140
167
177
180
179
157
120
80
90
110
129
137
130
94
100
61
69
86
109
113
67
46
112
60
89
98
63
120
90
47
46
44
92
128
176
189
115
76
115
126
136
148
158
170
176
176
176
175
171
157
147
140
131
131
182
217
180
162
147
134
128
113
61
62
82
71
161
109
46
49
49
111
137
152
157
154
153
151
150
151
148
146
140
139
137
133
157
179
196
196
194
191
193
195
81
77
77
73
61
84
139
159
176
169
176
156
121
81
92
105
112
114
94
111
90
75
92
79
117
77
55
48
89
85
59
98
58
116
117
47
40
46
123
153
192
130
50
84
117
126
133
144
146
165
174
179
177
173
166
153
145
140
129
135
176
219
181
162
149
137
128
108
56
59
86
63
152
124
42
57
57
124
141
161
156
154
153
145
146
145
147
145
144
136
134
142
184
195
194
195
195
197
201
203
76
75
93
88
86
82
140
164
174
174
174
155
125
78
104
101
125
126
111
102
100
93
72
69
114
89
57
56
82
45
65
58
60
118
122
110
36
81
120
186
189
60
57
82
114
127
133
143
151
158
167
174
169
167
162
148
135
132
125
132
165
215
184
159
148
138
128
98
49
54
72
54
138
131
47
55
100
134
145
160
155
154
152
149
148
146
140
140
138
137
133
170
194
194
193
195
200
206
205
203
78
76
74
66
54
81
138
164
173
171
174
155
116
74
126
126
131
115
77
114
94
102
96
96
124
103
102
92
70
45
92
75
95
161
101
96
32
116
143
192
90
38
67
80
111
125
131
139
144
156
160
165
168
164
154
144
131
130
123
127
159
210
195
155
146
135
126
83
46
61
72
47
144
139
52
48
95
138
152
156
154
154
153
151
148
147
145
142
139
134
145
189
183
193
194
189
203
209
206
204
81
77
74
64
49
76
137
164
173
168
176
157
116
75
91
119
119
109
82
96
86
80
101
88
123
96
58
50
49
48
98
105
115
97
66
43
82
120
173
145
37
41
81
79
109
124
131
137
145
150
147
157
162
153
146
138
122
133
127
126
152
204
184
144
146
132
120
64
47
63
68
43
134
146
68
46
118
141
156
156
153
151
151
151
149
148
146
142
136
135
175
196
194
195
201
196
207
206
207
207
85
80
74
65
51
113
134
165
173
166
177
158
118
91
114
106
115
90
99
107
76
80
92
92
112
99
84
56
56
44
85
76
104
76
39
76
162
155
162
90
40
44
89
79
111
124
129
136
142
143
151
155
158
159
148
133
123
134
134
125
144
196
194
143
142
130
104
46
96
64
78
43
122
152
82
54
135
145
158
155
152
150
139
149
149
142
142
142
135
142
183
192
194
198
205
206
206
206
202
200
81
78
77
68
103
99
137
164
173
165
177
158
122
81
88
101
111
88
83
109
62
109
83
83
107
132
102
47
69
53
46
86
100
86
44
116
176
185
103
65
75
46
94
88
111
122
128
135
137
148
151
153
156
157
153
141
126
111
103
121
123
175
169
148
140
128
123
46
78
106
89
48
105
153
93
81
144
149
157
153
150
150
150
149
147
141
144
136
133
162
193
187
198
205
206
206
209
209
185
207
79
77
76
69
73
109
148
165
170
174
178
159
121
78
89
101
117
79
78
70
85
88
80
89
105
123
120
46
87
123
40
83
70
96
130
115
135
133
43
64
59
47
103
91
114
123
128
132
139
145
146
151
149
148
156
150
140
129
138
137
169
185
163
147
135
112
71
48
62
79
67
74
110
153
101
105
146
152
156
153
152
149
144
149
147
144
143
140
134
175
195
192
203
208
193
200
196
210
197
201
93
88
76
68
73
115
151
165
170
175
178
161
122
79
89
100
133
85
73
95
91
53
71
89
105
117
127
89
82
94
57
67
133
157
148
108
163
65
52
56
57
49
101
97
116
125
127
133
139
141
143
150
149
154
156
152
148
145
170
180
191
190
159
144
132
81
49
48
62
78
68
56
61
152
104
125
146
155
153
136
150
149
148
146
146
146
142
136
138
182
196
193
208
208
206
198
209
210
210
211
75
88
70
64
73
115
150
165
166
175
178
157
122
76
121
129
120
93
94
93
63
80
70
73
90
82
122
122
108
53
72
116
149
176
110
137
82
51
50
53
62
46
93
98
113
125
129
133
137
140
141
142
147
148
151
147
149
154
187
194
195
190
153
141
121
51
76
50
84
77
66
54
73
146
110
137
147
155
154
152
149
148
148
145
142
143
142
135
143
188
197
198
202
207
208
207
209
212
210
196
68
81
69
65
77
111
150
165
167
176
179
160
123
75
103
111
114
93
90
72
63
82
81
83
101
86
91
123
97
76
141
161
181
125
115
101
46
72
48
57
72
45
86
93
107
123
129
132
135
140
137
140
138
139
142
141
144
151
162
178
176
169
137
137
90
46
77
52
99
87
70
58
67
142
119
142
148
155
154
151
146
145
148
146
145
144
140
134
144
189
202
209
209
208
209
199
205
213
212
212
82
79
65
63
103
112
152
169
175
178
173
162
120
89
116
98
132
102
69
94
82
59
96
108
95
103
99
96
95
132
155
186
146
107
141
48
100
62
46
72
88
47
81
85
99
120
129
128
133
139
143
138
106
107
121
120
112
107
118
128
111
116
125
131
53
97
47
56
68
74
70
63
42
130
133
147
150
156
152
151
149
148
147
147
140
144
142
129
141
192
208
211
210
209
206
200
193
205
213
213
56
58
63
62
82
116
151
169
176
179
176
152
126
123
86
123
115
70
69
74
77
71
103
109
95
101
91
88
108
142
150
182
114
154
77
52
45
96
88
84
87
54
81
80
90
115
123
126
130
135
145
144
133
123
121
125
136
155
163
179
151
140
141
107
46
51
46
58
66
76
69
71
63
124
146
149
152
155
152
152
150
145
142
147
145
140
140
130
156
201
195
211
209
197
198
212
213
213
212
212
55
56
58
58
106
111
150
167
177
180
172
167
134
77
98
125
100
78
97
47
80
76
122
119
89
94
104
100
139
141
164
136
163
122
51
62
78
51
51
56
87
62
93
75
79
105
118
119
125
130
138
144
140
131
126
127
132
144
149
145
142
147
120
47
48
51
48
56
69
78
73
72
92
122
153
151
153
156
154
153
152
151
150
146
142
143
139
128
153
208
204
211
212
214
210
202
211
208
207
205
52
52
54
57
89
106
145
165
178
179
177
160
123
88
121
105
85
92
85
51
78
67
143
107
122
87
109
122
116
128
170
169
131
69
52
60
107
53
91
70
71
62
64
73
69
100
107
112
120
129
133
139
141
135
132
128
126
125
127
137
147
135
75
44
46
53
56
54
74
79
75
71
56
119
154
151
154
148
152
154
154
153
150
147
143
142
136
124
160
213
215
200
214
216
211
199
201
195
208
204
51
50
48
65
101
113
140
162
176
177
178
159
121
71
112
100
75
85
55
55
69
63
138
113
131
111
110
118
100
114
186
154
53
52
50
56
51
53
52
73
83
62
53
65
62
75
93
106
117
127
133
134
136
138
142
145
155
161
152
155
145
126
76
45
50
58
57
51
78
80
76
74
59
116
158
149
156
156
150
153
152
153
149
147
144
141
132
121
160
215
217
215
215
214
212
211
208
204
209
200
98
49
49
71
102
114
141
163
175
166
177
161
119
73
94
96
71
88
87
80
64
64
114
89
114
126
110
112
126
94
144
78
50
51
52
79
49
72
87
48
97
58
54
60
58
67
65
88
105
124
131
136
141
146
154
160
166
167
167
156
140
65
56
49
64
72
77
76
86
85
78
86
65
116
163
148
157
155
152
151
150
150
150
142
142
139
133
121
161
201
217
212
211
200
214
211
209
207
207
204
48
49
46
63
94
118
142
164
174
176
177
163
121
70
92
75
57
92
56
61
59
57
124
81
98
116
129
123
137
105
88
61
75
110
52
111
50
57
53
51
50
56
57
58
60
71
54
56
82
109
119
130
138
145
149
162
169
166
166
152
129
51
56
56
66
75
79
81
90
85
94
97
71
115
162
147
150
152
149
151
149
148
148
144
140
137
131
122
188
220
215
211
213
214
212
207
205
198
169
153
45
47
44
52
98
112
143
164
173
175
167
160
116
95
130
97
58
74
61
63
51
48
127
114
78
101
105
124
144
134
137
80
49
56
57
97
47
60
50
53
50
51
59
60
61
97
88
62
75
84
98
111
123
132
147
149
163
144
155
143
119
52
56
56
57
61
54
55
89
89
92
105
72
122
157
127
125
134
139
139
145
148
145
142
136
134
128
128
186
218
212
211
212
211
207
183
172
127
69
48
96
64
94
47
76
109
140
163
172
173
174
156
135
159
92
93
50
78
64
60
66
53
115
128
91
69
106
123
122
128
98
151
89
47
58
73
47
61
91
83
80
49
55
58
57
52
87
95
121
127
131
136
136
141
150
154
154
156
163
166
185
168
116
63
53
55
98
57
88
88
90
86
73
130
147
116
112
115
118
120
125
132
133
137
137
132
122
145
209
212
195
194
209
205
181
159
86
44
52
69
89
74
78
51
64
94
129
161
171
171
174
167
156
77
101
77
42
76
58
55
108
73
74
127
120
103
139
95
97
115
98
137
128
75
98
86
49
65
52
98
52
51
52
60
57
53
76
106
123
125
127
132
137
137
139
143
143
144
162
182
195
200
201
177
121
59
44
54
90
84
80
82
73
146
135
129
130
122
116
111
107
105
110
115
127
118
119
140
202
207
206
209
208
196
163
119
49
59
78
83
130
116
95
72
66
102
118
159
168
171
177
168
121
104
128
43
41
58
89
42
97
83
61
90
114
99
108
102
105
118
123
137
87
110
81
88
48
65
66
48
56
79
78
58
65
54
69
105
117
123
127
130
136
138
139
139
144
153
169
185
192
195
200
189
205
177
90
49
89
85
76
100
68
145
138
142
140
135
130
128
123
109
101
97
102
112
97
125
201
205
209
208
200
168
121
80
72
77
103
86
135
141
127
103
84
57
117
156
160
171
173
159
132
134
83
43
80
129
105
96
103
75
65
90
80
107
72
84
114
131
135
102
111
97
96
56
75
78
88
50
56
59
51
61
72
61
69
103
121
125
125
132
139
141
136
139
148
159
170
182
185
181
194
201
205
209
182
116
107
72
69
83
78
141
142
148
145
141
139
136
131
124
116
109
110
128
104
141
207
210
212
207
170
75
67
83
80
91
93
84
127
144
148
129
86
57
117
154
173
173
171
158
178
128
63
49
71
64
56
75
96
113
88
61
113
70
70
97
102
125
138
122
113
120
115
74
60
69
55
53
58
61
54
68
83
80
61
107
120
120
128
138
137
140
138
142
152
161
166
166
180
186
191
183
189
208
212
205
120
72
63
75
65
140
142
144
144
138
143
140
137
132
128
123
119
129
115
172
211
212
211
194
129
59
88
90
93
106
94
92
85
129
156
154
109
57
118
162
176
176
171
160
160
100
48
45
80
63
56
47
90
72
46
73
56
88
65
93
105
115
132
137
114
126
121
103
49
66
55
49
55
61
49
65
95
99
57
105
116
130
133
138
139
138
139
142
146
160
163
170
175
181
186
194
200
194
211
202
201
80
54
76
88
147
144
148
145
141
142
142
139
135
131
126
126
135
131
179
213
213
209
171
92
86
92
95
109
107
94
100
46
110
160
163
125
55
118
163
176
177
177
162
149
115
46
44
58
58
51
48
98
65
53
63
68
94
82
95
87
100
119
140
130
66
146
101
43
63
57
47
99
62
52
59
104
109
54
99
123
132
133
136
140
139
141
146
151
156
161
167
172
179
184
192
198
202
208
212
213
166
49
51
75
144
145
146
145
144
141
140
135
137
132
128
125
143
162
202
214
212
204
139
91
91
99
107
106
91
99
103
37
87
159
169
131
49
116
162
178
177
178
165
133
120
47
47
56
97
49
56
113
65
61
47
67
98
94
95
100
83
120
140
117
59
164
97
48
67
66
49
55
55
51
67
104
117
59
102
126
128
135
137
135
138
142
147
148
154
158
164
171
176
183
188
197
204
209
213
211
213
82
40
89
146
142
148
145
144
142
139
136
134
130
124
138
179
197
197
215
211
173
106
100
95
106
111
94
93
102
102
34
127
152
169
129
47
114
163
178
178
180
166
146
97
49
57
96
47
47
107
122
103
56
59
54
78
111
84
105
73
121
136
126
79
148
94
54
68
62
52
54
55
56
96
110
115
64
103
129
132
136
134
136
137
140
145
146
146
156
163
167
167
178
188
195
203
208
212
216
220
155
35
101
144
148
142
146
144
140
137
133
131
127
124
170
202
205
214
215
205
152
93
92
106
116
108
91
101
102
110
31
85
149
170
141
55
111
163
179
172
175
166
138
75
57
47
45
46
51
96
97
47
53
59
44
94
54
66
109
84
124
142
126
135
137
100
58
59
59
56
54
51
66
114
123
114
69
107
128
134
137
137
136
138
137
143
146
150
156
160
156
173
178
185
194
201
207
210
214
218
197
103
109
144
149
145
140
142
140
138
133
129
125
126
203
215
210
213
214
188
121
97
93
106
111
96
98
105
101
94
31
61
145
161
140
58
108
163
176
174
174
162
137
87
50
45
47
52
69
56
89
54
58
55
45
56
57
72
62
116
130
123
99
131
130
105
88
74
70
57
54
52
77
116
125
111
72
112
130
133
139
140
137
134
137
141
143
148
154
158
157
169
173
180
184
200
205
207
198
216
216
90
115
144
144
139
142
140
139
139
135
128
124
142
207
210
202
184
208
159
117
101
106
108
106
92
110
102
108
86
32
96
138
170
147
61
117
162
167
177
178
165
142
79
49
47
48
49
94
52
73
55
52
58
45
52
69
70
62
103
119
116
105
71
55
61
80
98
91
62
50
62
91
122
128
105
81
120
131
135
139
139
138
134
136
139
142
147
151
155
157
167
163
181
187
197
203
208
211
214
217
139
122
144
147
143
142
139
139
139
135
128
128
147
205
207
206
201
194
133
118
103
101
104
93
92
106
97
92
92
37
46
128
168
148
70
105
160
176
177
178
165
149
86
52
42
50
68
58
50
62
70
78
59
49
54
71
78
76
109
115
98
116
101
69
52
54
60
55
56
47
74
103
122
127
89
93
127
134
138
140
141
137
136
136
138
141
145
144
150
159
165
168
178
188
195
201
206
209
213
214
178
126
142
145
143
144
143
142
140
136
131
134
138
173
190
211
213
180
120
109
98
97
107
95
103
105
93
109
94
39
41
117
163
151
83
103
158
175
176
177
165
147
98
57
44
65
56
47
55
63
61
68
55
57
63
63
72
81
79
101
99
87
138
108
62
123
54
74
47
54
87
113
123
119
72
106
132
138
140
143
141
138
135
136
137
141
144
148
152
155
160
167
175
184
192
186
189
196
212
213
205
140
115
117
127
137
142
144
142
139
133
144
143
138
167
215
210
163
113
100
99
95
81
96
102
91
92
95
85
36
40
110
166
157
87
101
155
173
176
178
158
137
95
83
82
51
47
54
59
58
66
55
48
45
57
59
84
118
64
55
81
115
103
78
51
46
48
79
49
68
100
116
123
102
73
122
134
138
141
143
142
140
139
137
136
139
144
147
146
154
160
165
170
179
190
189
198
209
199
214
216
145
80
81
91
102
114
122
130
136
144
154
140
134
168
208
195
139
100
84
104
81
88
100
95
92
101
90
67
35
36
108
170
156
124
97
153
172
176
178
168
128
97
67
49
45
48
94
101
87
76
60
49
49
50
59
86
123
121
78
93
113
83
55
45
47
44
43
58
85
114
118
114
66
98
131
134
136
140
143
141
141
136
137
135
132
141
144
148
151
147
161
169
175
186
194
202
207
210
213
217
168
85
88
104
78
75
77
83
95
124
148
159
152
197
200
168
107
74
82
92
89
101
94
92
97
99
92
57
52
57
107
171
174
112
97
153
172
175
180
171
120
99
55
47
48
55
54
53
52
63
60
55
49
50
61
93
96
135
121
95
93
45
49
46
44
40
46
71
102
116
121
80
71
121
135
136
138
139
140
143
143
141
136
136
136
138
138
146
151
148
159
165
175
182
184
193
204
208
213
216
198
93
101
100
91
78
93
51
46
67
157
191
160
203
199
143
97
67
79
85
105
98
87
89
101
95
103
54
87
87
112
169
179
124
102
152
174
176
181
170
118
104
48
51
57
46
51
50
56
60
62
55
45
48
55
62
50
97
131
108
103
54
82
42
39
44
62
87
114
117
90
77
109
130
135
137
139
139
140
143
143
143
136
136
137
139
139
144
147
147
152
162
170
178
177
196
194
203
210
199
215
114
102
120
101
92
80
63
46
54
177
194
178
205
169
78
102
73
73
95
101
82
82
93
109
90
73
60
85
102
126
169
178
134
100
150
173
178
182
172
115
97
48
48
48
49
54
50
48
64
57
72
49
57
103
66
64
74
103
106
78
51
82
42
40
54
77
100
110
81
62
107
124
130
135
138
139
136
139
142
142
143
142
137
136
136
136
142
146
149
152
162
165
173
182
192
200
206
210
212
216
154
94
106
104
97
94
79
69
73
166
204
188
155
88
57
68
101
90
102
85
76
86
107
102
105
69
65
69
111
116
162
175
135
101
149
173
178
182
172
113
87
44
51
53
104
56
91
50
79
102
92
65
55
71
68
76
71
116
91
92
49
89
42
43
74
94
71
60
82
108
123
127
131
135
137
138
140
140
142
143
144
141
143
142
140
140
140
144
148
153
150
164
171
178
187
196
203
208
207
204
184
88
99
103
101
108
91
94
93
163
196
147
91
66
72
104
90
105
90
71
77
100
117
102
77
66
66
52
81
106
154
174
143
109
146
172
180
170
161
116
100
61
49
54
58
60
76
52
75
56
95
102
50
87
50
88
68
111
106
78
45
46
44
45
60
77
85
104
116
123
126
128
129
132
134
138
137
140
141
143
143
146
144
142
141
141
141
143
148
151
157
162
169
178
185
192
200
206
211
213
204
97
92
101
108
105
104
112
109
123
124
91
86
97
84
83
102
93
73
66
94
112
112
97
76
62
102
55
101
95
154
188
160
111
146
163
180
184
166
95
61
49
48
55
99
86
86
46
83
44
88
116
61
96
74
109
87
89
99
66
44
46
47
62
90
109
112
120
124
126
128
128
128
133
136
136
138
140
141
141
141
140
145
141
145
143
144
145
147
145
154
160
167
173
180
187
195
202
209
210
211
123
88
100
111
113
117
117
114
114
101
104
115
90
84
95
88
75
73
80
111
119
104
86
75
56
52
52
55
73
171
202
177
122
146
173
179
182
167
102
51
52
50
57
58
71
71
52
100
48
96
94
105
62
87
55
89
65
96
86
47
44
62
87
112
114
118
119
126
127
126
130
132
131
134
136
136
135
138
140
143
144
147
146
145
142
148
146
149
151
153
161
166
171
178
180
192
200
205
209
212
156
82
96
104
113
120
122
116
112
111
119
118
98
98
91
79
75
79
106
123
112
88
63
55
95
71
48
53
106
172
184
177
126
147
173
179
181
165
88
52
48
54
60
65
74
61
83
92
56
95
71
103
75
104
51
73
62
73
89
92
61
81
95
108
116
121
122
126
126
128
129
132
131
134
137
134
137
138
140
144
145
144
146
146
146
148
148
150
151
151
152
165
167
164
177
191
197
202
208
211
168
90
91
97
109
120
128
122
123
131
127
104
110
86
82
88
82
98
124
124
95
64
49
53
75
96
