P2
# Created by GIMP version 2.10.6 PNM plug-in
100 100 255
42
47
45
44
60
44
45
43
46
69
164
220
228
204
195
199
200
196
194
189
202
196
202
192
196
195
196
194
203
198
202
204
215
222
214
224
223
223
207
224
220
217
217
216
218
212
216
225
215
218
218
228
224
221
223
223
227
227
227
226
226
228
229
225
227
221
227
223
220
220
220
221
215
204
211
202
197
198
199
198
195
196
194
197
199
197
196
191
194
200
199
200
196
200
200
213
203
155
78
41
43
46
50
48
51
44
51
49
105
199
224
204
194
201
197
195
196
200
200
199
194
197
203
195
195
199
197
194
210
211
220
222
225
219
232
222
225
221
217
216
231
224
223
225
217
224
225
232
247
251
249
246
240
227
222
223
225
230
228
225
232
232
231
223
227
226
221
223
222
225
225
221
228
225
225
222
221
217
210
205
198
194
197
199
192
198
204
200
198
189
196
193
190
192
195
197
204
223
211
145
44
43
46
61
43
45
60
163
220
211
200
198
194
195
197
199
204
198
197
201
197
195
194
197
200
200
204
212
221
232
220
227
219
231
220
225
225
210
223
234
238
234
237
239
238
238
248
253
254
254
254
249
229
232
228
226
219
225
226
218
238
229
249
230
224
225
219
225
221
227
224
224
221
232
221
223
220
225
223
226
223
216
204
195
200
190
198
193
199
200
201
196
203
195
195
199
196
192
202
216
54
59
64
53
46
79
182
217
202
198
193
198
203
196
199
201
198
202
197
193
197
214
215
213
224
226
224
225
229
221
221
229
226
229
224
227
218
219
250
252
252
250
252
252
252
252
253
253
253
254
253
252
234
238
236
238
237
244
237
221
243
250
239
250
229
225
228
222
225
221
225
218
230
222
230
221
225
226
227
222
225
220
227
216
217
200
194
202
199
197
197
202
194
192
193
193
197
196
200
191
53
52
45
42
108
199
217
203
200
202
202
192
196
192
201
198
199
187
194
208
223
220
222
222
224
218
224
228
222
220
226
224
226
224
216
216
224
237
252
254
254
254
253
254
254
254
253
249
249
250
250
253
251
246
249
248
250
250
251
243
250
253
249
250
252
250
225
215
219
221
218
227
225
226
221
225
225
220
219
222
226
229
226
226
225
224
215
212
199
200
192
192
203
198
190
198
198
198
200
198
51
48
61
141
220
218
191
198
193
191
201
200
201
196
195
192
198
213
219
223
222
231
227
225
223
222
219
214
223
222
228
225
231
232
230
241
235
217
250
252
251
251
249
246
241
248
236
241
249
248
235
243
248
243
243
251
250
252
246
252
254
253
253
244
252
253
243
234
225
218
224
222
223
219
228
229
220
229
228
219
222
225
221
220
224
219
221
221
215
201
202
189
197
190
199
196
198
196
199
197
44
69
173
219
207
204
199
200
198
201
197
200
196
204
208
206
230
226
226
226
230
223
218
225
220
218
222
225
225
230
239
242
246
239
244
250
233
242
251
251
243
246
231
232
228
244
235
233
239
231
233
239
242
251
243
243
248
251
253
254
254
254
251
227
253
255
253
250
250
242
226
214
225
226
220
227
229
225
234
224
222
228
217
219
222
227
221
223
228
230
217
208
197
195
197
205
196
195
204
194
84
186
226
204
199
194
184
190
199
197
195
196
200
201
212
216
221
223
227
220
228
224
223
223
222
224
219
232
246
251
252
252
250
252
250
245
217
245
248
235
230
234
239
239
232
238
232
229
229
232
229
223
242
244
241
213
228
238
242
251
254
254
252
232
252
252
253
253
252
248
253
248
228
215
206
217
220
219
218
229
231
219
221
220
221
223
222
224
214
224
218
222
213
195
204
203
203
193
194
196
203
222
204
199
200
206
200
191
197
210
194
196
192
220
222
224
224
223
212
221
223
226
227
223
221
225
244
250
252
253
253
248
247
250
250
218
216
251
247
227
232
232
238
249
244
246
238
241
249
241
239
233
228
226
241
238
232
223
243
250
252
254
250
243
253
249
248
254
253
252
252
252
253
245
214
197
203
207
207
220
220
225
214
214
220
230
224
222
223
226
225
217
226
218
203
205
203
190
198
193
209
204
201
201
198
190
192
202
188
195
200
198
216
228
230
221
221
224
227
226
219
223
223
209
214
246
253
254
251
252
245
245
245
246
242
196
244
246
232
237
234
245
250
253
252
253
253
252
252
253
253
251
250
240
237
242
248
239
249
250
253
253
245
252
253
250
251
250
243
240
239
245
249
253
251
237
205
202
203
199
203
208
226
213
217
216
224
221
225
219
222
217
228
217
224
221
194
199
201
202
203
212
203
198
205
198
202
207
209
204
195
224
227
229
224
224
226
219
223
225
212
224
211
220
247
253
252
250
249
250
250
249
248
246
228
233
251
245
242
251
251
251
247
242
238
241
235
233
226
225
223
217
235
242
246
241
244
254
253
253
252
250
230
254
251
247
251
252
247
239
234
233
234
252
252
253
241
217
221
210
202
193
213
217
217
228
219
216
223
218
221
227
221
221
226
223
219
208
191
208
193
195
198
200
201
192
204
191
195
199
222
223
222
228
220
220
217
227
227
223
218
205
215
250
252
251
240
235
238
239
251
248
251
244
224
249
247
245
250
251
242
220
205
214
206
205
205
210
213
207
213
216
205
210
220
230
252
254
254
253
247
222
219
229
225
223
240
252
251
247
231
244
240
247
250
253
253
245
220
215
213
206
216
213
217
209
223
227
220
222
232
225
227
229
220
222
226
227
206
196
197
198
195
202
207
198
204
196
203
216
224
226
221
212
219
225
222
222
221
210
205
220
246
252
247
245
238
239
249
251
249
253
253
251
253
253
249
252
240
223
203
224
201
212
199
199
199
205
212
206
201
207
199
205
210
206
215
241
246
248
220
212
201
196
198
205
200
214
239
249
250
238
250
252
251
250
241
238
249
221
219
218
214
206
200
196
195
208
220
224
227
219
211
224
226
225
223
224
216
206
202
187
197
199
195
186
191
204
221
223
223
228
224
232
228
222
216
217
216
202
214
250
250
230
235
249
233
242
251
250
251
253
252
253
254
254
254
234
212
214
205
207
202
205
200
204
193
193
197
198
197
210
203
205
201
204
205
220
211
221
218
193
197
202
201
200
187
183
177
189
233
252
252
250
252
248
235
233
249
248
214
221
226
226
214
217
214
196
206
226
234
230
236
222
228
227
218
219
229
222
195
192
193
199
205
203
207
224
223
217
226
225
219
216
227
216
200
207
202
211
249
251
246
250
242
245
246
252
252
238
226
227
243
251
252
247
216
217
220
215
201
211
200
199
201
199
198
198
199
199
192
203
196
195
189
191
198
210
220
221
243
203
194
185
182
160
141
128
113
114
135
177
220
244
249
244
246
248
247
254
245
211
214
221
216
218
222
221
205
208
215
221
222
217
222
216
226
219
227
224
198
203
201
196
196
210
218
218
228
220
221
226
211
217
216
206
202
213
215
244
251
242
240
249
239
253
249
230
208
193
207
220
229
238
228
218
220
210
199
207
210
201
208
208
211
199
205
198
198
196
186
183
196
186
201
199
195
202
197
178
209
183
145
142
138
115
83
79
74
82
85
84
95
120
172
207
223
222
241
254
251
234
210
223
222
218
221
226
223
225
219
213
217
220
216
223
215
225
221
219
197
200
197
196
219
226
229
221
210
223
226
224
214
217
219
207
212
220
234
251
245
237
247
250
251
246
212
199
198
196
216
223
231
226
222
221
199
198
205
203
212
204
209
211
215
208
199
193
196
193
195
198
199
196
200
200
179
171
156
144
150
139
115
94
90
80
73
70
71
67
68
61
89
80
82
105
113
134
147
198
230
243
220
215
219
223
223
223
219
214
216
215
216
219
218
227
226
232
222
222
203
195
197
214
219
228
226
223
223
223
216
224
233
209
201
225
223
227
252
240
236
238
251
251
238
194
179
185
192
201
200
224
230
226
222
204
203
204
206
200
216
207
211
218
230
241
226
216
195
190
197
185
195
206
201
181
162
130
112
110
100
94
75
80
76
74
70
70
65
69
69
71
68
69
87
68
76
74
90
102
142
205
211
222
216
218
219
216
222
225
218
227
220
212
215
221
219
229
232
213
197
194
216
237
213
230
234
219
221
229
221
220
206
223
218
219
218
251
251
246
249
251
251
238
174
155
157
151
169
171
191
218
199
215
218
209
202
206
210
215
222
228
246
252
253
254
254
252
244
218
198
199
192
192
195
166
128
103
85
75
82
69
71
66
72
103
73
68
75
89
65
69
73
87
74
69
68
71
66
71
92
115
190
211
217
218
218
218
221
221
222
218
219
224
220
232
221
219
206
229
200
202
217
224
223
221
219
218
223
219
213
209
226
222
228
216
241
253
253
253
251
252
218
147
113
107
107
112
137
141
158
224
222
200
209
195
203
227
245
250
253
253
253
254
253
254
253
254
251
247
229
199
189
200
196
163
115
91
93
79
68
72
71
71
73
73
74
80
76
73
68
71
84
84
73
80
69
66
61
88
69
78
99
186
216
221
224
220
221
227
214
226
230
215
212
226
218
227
221
205
204
233
216
228
230
224
219
217
214
223
212
226
223
222
208
222
251
253
251
254
250
213
125
97
98
91
86
100
91
117
152
209
206
146
203
213
242
252
252
254
254
254
254
254
254
254
254
254
253
254
251
227
199
194
188
155
109
84
80
72
58
74
70
65
70
67
82
101
68
71
63
62
83
68
66
66
64
61
65
66
65
62
67
101
186
216
219
209
213
212
221
220
220
229
221
224
227
231
193
200
230
223
224
216
218
218
226
218
220
224
224
231
228
208
213
245
254
251
250
233
171
99
77
68
75
95
77
91
80
87
110
192
215
175
206
238
254
254
254
254
254
254
254
254
254
254
254
254
254
254
254
247
231
205
197
155
118
80
72
78
69
66
64
80
76
72
65
67
73
69
64
68
108
74
65
77
65
68
65
63
61
72
66
68
102
209
216
226
228
208
208
217
223
222
223
225
228
214
196
195
209
219
224
220
228
217
221
222
226
219
222
228
215
212
232
252
253
247
202
143
86
78
65
67
65
74
75
65
71
78
95
181
213
219
229
253
255
254
254
254
254
254
254
254
254
254
254
254
254
254
254
251
247
228
204
178
122
83
71
72
66
73
81
69
64
71
79
86
62
68
65
69
91
59
65
77
69
68
64
61
62
67
65
62
59
119
216
216
215
222
216
214
214
220
226
224
228
218
203
198
229
221
223
231
229
229
225
226
221
224
230
221
217
215
238
248
232
162
113
75
70
78
76
63
60
71
69
73
73
71
76
190
205
209
249
253
254
254
254
254
254
253
253
254
254
254
254
254
254
254
254
254
253
248
217
179
140
96
81
69
68
63
92
88
64
67
85
116
67
64
57
58
71
61
64
71
63
70
69
67
66
72
77
71
64
55
147
218
222
211
215
207
212
222
218
216
215
202
203
210
234
227
220
227
224
230
221
234
225
220
223
209
223
220
241
209
138
92
81
75
69
83
83
72
77
78
97
75
65
77
97
199
210
232
253
253
254
254
253
252
251
252
252
252
252
253
253
253
252
252
253
254
253
248
232
202
166
129
95
69
72
68
58
79
66
62
63
85
75
65
62
63
66
68
63
69
64
64
65
67
65
79
69
58
66
69
71
178
229
223
234
234
215
207
213
193
203
199
218
216
226
219
232
221
229
220
225
222
229
217
207
224
221
208
205
137
83
81
79
77
89
89
60
75
72
62
77
76
88
75
127
210
198
251
254
254
254
253
248
237
241
248
238
238
242
241
233
232
240
247
252
254
252
249
242
224
193
131
80
91
62
70
70
78
82
69
64
88
84
62
61
64
73
64
61
68
65
64
66
74
64
93
69
69
80
62
70
96
201
209
239
251
244
215
201
204
196
209
235
227
228
228
224
225
218
224
227
220
224
214
229
216
216
214
160
91
73
68
82
79
85
81
77
65
95
74
72
64
79
77
154
205
221
252
254
254
254
253
237
239
250
246
244
223
217
231
244
246
230
203
226
244
250
237
242
224
200
131
99
73
73
66
67
73
65
68
60
82
70
75
72
73
63
69
59
64
69
60
63
70
85
76
60
64
60
67
67
67
152
229
230
252
253
245
221
199
202
220
221
221
225
224
218
220
225
226
227
215
222
224
208
224
212
170
94
80
75
82
79
85
90
71
78
67
96
70
63
62
69
68
171
184
235
252
254
254
254
249
237
249
250
247
247
241
231
245
249
244
243
218
206
217
226
228
228
224
196
164
111
78
73
68
66
74
65
70
66
92
63
71
76
65
71
69
63
67
57
65
59
64
103
59
65
59
65
80
77
74
78
197
226
251
253
253
252
230
200
205
220
207
232
223
211
227
231
224
220
213
210
218
228
208
147
114
81
91
85
92
73
72
96
65
66
65
69
70
67
63
61
63
191
187
245
254
254
254
254
231
236
245
243
247
249
235
231
247
250
248
241
221
216
215
203
198
208
211
205
174
106
75
83
72
66
65
68
63
75
74
70
70
81
64
57
70
62
66
64
65
63
65
60
72
66
71
56
62
78
69
65
91
211
241
249
253
254
252
221
203
208
207
221
214
223
216
230
211
207
217
226
221
216
165
97
122
153
144
79
90
83
90
92
100
101
81
71
61
63
69
72
101
197
190
239
253
254
254
254
233
241
248
247
249
246
237
230
247
245
240
229
233
228
219
210
201
204
211
208
198
96
75
74
78
66
70
71
71
83
81
70
83
105
67
65
63
59
69
73
70
68
69
74
65
63
66
75
63
71
79
67
72
133
221
251
233
252
252
251
224
213
216
221
220
215
220
217
214
227
221
223
222
209
157
182
215
225
214
166
106
95
94
159
65
69
79
64
70
65
80
69
151
199
200
238
252
254
254
254
230
243
244
250
246
244
238
236
236
242
242
232
238
234
240
231
223
206
201
212
204
123
81
81
88
70
76
68
70
62
71
61
82
98
68
60
55
63
81
75
80
64
66
63
66
61
72
58
68
76
70
78
70
80
171
243
235
235
241
252
249
222
203
207
231
204
205
198
220
233
225
227
203
151
196
227
226
219
223
225
217
173
144
89
63
73
77
69
69
67
64
72
174
196
200
230
250
254
253
252
222
225
246
247
242
246
240
234
244
240
243
246
247
244
247
239
239
238
212
196
216
156
75
85
105
84
62
62
74
73
81
68
94
125
97
68
63
61
81
136
92
59
67
83
68
68
67
70
67
76
67
70
63
71
102
215
250
238
230
244
250
241
217
192
212
209
206
218
239
246
212
217
175
136
208
228
220
228
228
221
226
220
131
93
82
77
71
64
74
64
76
70
189
209
219
223
240
254
253
246
217
221
235
240
238
237
237
236
241
243
237
247
244
249
246
247
247
244
241
227
209
203
88
79
163
76
68
75
70
69
155
104
107
112
70
68
77
71
78
107
70
64
62
64
58
67
63
53
83
70
70
70
66
66
71
132
244
249
233
240
242
251
219
203
199
209
211
249
251
242
220
212
146
163
217
227
224
217
213
215
218
225
164
77
67
55
72
81
75
82
70
89
200
243
240
236
249
253
250
233
208
213
216
222
228
230
230
238
237
241
240
244
247
245
247
250
247
245
243
231
219
207
149
103
89
71
74
70
71
71
93
148
82
88
65
65
72
74
61
74
65
67
64
71
65
63
80
80
101
77
66
60
73
84
75
79
187
251
249
251
249
251
226
196
201
220
248
246
247
234
209
173
131
188
219
220
224
226
237
232
224
230
210
107
77
90
82
68
74
76
104
136
232
245
249
243
245
250
244
219
211
226
212
216
218
227
228
233
240
239
244
248
245
245
246
246
243
250
248
242
229
215
194
124
84
84
70
66
80
74
63
122
77
92
83
65
60
64
67
73
75
75
74
67
68
61
54
56
62
83
62
64
68
62
83
77
99
225
252
252
251
253
246
206
214
248
244
232
250
231
204
128
154
227
222
221
214
221
221
219
225
225
224
151
85
78
74
73
67
70
85
109
220
245
251
243
244
253
241
237
210
219
227
196
202
210
216
228
239
244
242
248
246
243
248
250
246
249
246
245
243
227
212
177
86
77
81
67
80
66
72
164
103
61
82
68
66
64
63
66
68
77
86
79
70
67
66
69
63
67
71
62
84
73
63
70
79
162
249
251
250
253
252
218
233
249
250
232
244
222
190
116
176
225
223
213
217
220
215
221
217
220
219
212
93
86
92
96
92
89
86
67
186
244
251
232
238
249
249
231
210
215
218
214
210
207
217
231
231
244
246
250
240
246
246
246
250
247
246
246
249
239
225
216
126
73
70
83
86
71
79
124
119
69
74
93
58
59
64
62
65
74
69
68
69
64
74
76
65
59
67
62
67
74
69
67
63
96
211
248
246
248
250
217
249
252
242
226
247
212
141
96
178
224
221
237
229
222
225
231
219
216
230
205
74
62
75
60
81
65
68
83
121
241
254
245
243
245
250
207
219
226
221
214
215
224
212
219
230
243
244
243
250
249
245
244
242
246
250
247
250
242
232
215
167
78
70
80
77
92
68
70
91
67
61
62
75
73
65
67
66
67
65
64
63
63
70
86
70
70
66
65
67
63
71
56
68
64
147
221
233
241
240
233
253
240
223
232
250
188
86
83
165
215
216
218
217
223
214
208
224
228
217
173
78
69
74
76
79
81
60
64
76
175
251
253
250
238
247
219
223
215
230
214
222
230
205
214
231
245
248
244
246
244
249
243
244
244
247
247
249
247
241
221
205
90
72
73
63
96
70
80
78
71
65
71
74
65
68
71
61
67
66
73
79
76
115
81
73
76
73
69
67
85
93
83
80
70
103
194
216
227
227
247
251
229
222
247
237
128
73
62
133
225
232
223
218
220
232
229
229
206
131
95
79
77
63
69
74
66
69
77
64
62
192
252
254
248
248
239
233
225
211
221
211
219
206
205
210
223
238
241
245
244
247
244
246
250
249
242
249
251
244
230
216
116
70
78
75
84
77
67
75
78
77
71
82
81
68
63
69
66
93
60
63
97
173
68
71
72
68
69
72
77
71
73
86
72
74
165
208
212
222
251
243
227
241
248
195
96
87
80
106
188
234
225
230
228
222
218
171
99
81
83
70
71
81
131
91
84
69
63
81
68
70
182
244
249
225
235
231
227
207
207
205
203
202
199
208
217
228
241
238
250
248
243
244
245
247
244
250
247
243
243
234
147
79
80
80
82
98
73
89
71
71
69
81
71
66
67
63
63
69
69
67
65
60
61
59
69
65
70
68
68
70
66
87
71
76
130
207
224
222
252
242
241
250
239
132
80
95
78
78
112
210
223
220
228
222
210
121
87
81
80
77
75
127
198
74
70
73
68
79
71
71
75
115
194
211
218
222
206
200
221
207
224
240
240
242
233
223
230
241
248
244
244
244
249
246
248
247
248
248
248
236
185
72
79
77
73
95
84
81
75
84
71
69
72
68
73
65
60
80
68
64
67
74
66
65
65
68
60
67
69
69
75
81
74
74
106
198
222
212
253
250
244
250
205
99
77
84
82
95
105
163
193
195
210
156
98
91
87
67
66
65
72
75
87
66
75
69
68
87
66
78
79
74
85
186
205
200
206
231
211
227
242
201
169
175
215
247
227
243
241
250
249
249
248
249
251
248
248
247
245
234
213
98
79
81
68
74
97
89
69
80
72
67
70
85
69
63
70
72
64
69
71
70
69
69
62
62
69
61
71
67
76
76
81
72
83
184
226
213
251
250
250
238
148
92
79
69
68
73
82
106
115
103
124
101
91
89
99
87
71
65
68
65
64
70
69
69
66
77
72
74
72
73
66
95
184
208
205
221
214
244
143
56
54
51
71
184
239
235
251
248
246
247
247
249
249
248
244
248
249
246
219
138
81
145
100
79
88
79
73
86
77
68
70
66
76
68
68
65
70
68
66
65
74
70
61
79
83
63
62
77
91
73
77
89
75
152
222
219
245
234
246
218
109
80
85
77
84
81
74
87
150
78
92
82
81
82
79
102
72
85
69
69
68
74
70
70
62
80
80
67
81
79
73
72
129
203
203
228
224
217
60
56
57
56
53
125
245
229
249
244
247
244
248
252
252
249
247
248
247
248
229
155
82
164
171
97
70
122
208
103
81
70
83
68
66
67
72
62
61
61
65
80
71
61
73
65
83
80
68
99
90
76
69
72
61
140
224
212
230
249
242
185
89
74
80
72
97
79
77
86
128
85
70
82
83
75
79
75
74
82
66
61
69
58
62
108
62
69
113
89
74
82
75
79
72
180
200
226
227
186
50
52
57
53
53
60
224
229
243
250
249
246
248
247
250
248
247
251
249
249
234
180
84
122
150
132
113
172
249
167
65
79
88
60
64
69
94
170
107
71
65
75
79
70
66
61
92
74
71
101
61
68
70
68
71
124
213
231
230
235
219
162
88
71
87
74
69
69
79
79
76
75
79
88
81
65
77
87
77
86
69
69
67
63
66
80
76
109
127
110
101
94
89
72
76
115
208
201
222
170
51
56
54
57
51
55
198
232
233
245
247
241
249
248
247
251
248
248
250
251
240
205
100
94
82
84
79
111
188
106
71
102
88
79
75
64
115
197
105
61
65
60
64
70
75
74
72
79
91
67
69
72
62
60
63
109
220
237
229
218
215
159
84
80
130
77
69
68
79
74
78
82
87
76
72
75
66
77
78
82
91
112
66
64
70
78
83
69
70
70
69
78
81
81
84
76
178
206
219
207
56
50
56
54
54
50
185
232
222
242
242
249
245
248
248
249
248
250
246
249
246
219
122
69
83
83
74
74
72
78
72
64
72
77
97
67
70
75
66
74
69
67
71
74
60
66
68
66
85
65
65
64
68
65
67
98
209
246
223
208
204
120
81
81
71
78
74
68
66
74
65
75
69
80
73
68
64
67
72
65
166
234
76
69
67
76
80
78
73
82
73
74
66
76
85
75
94
213
209
233
120
53
50
53
59
51
189
233
223
232
244
251
248
248
251
245
250
247
250
249
249
223
146
78
85
82
96
76
72
89
68
71
65
65
74
78
79
61
58
68
72
66
68
66
66
67
68
79
86
59
66
62
73
72
64
101
202
250
221
220
207
103
81
89
66
70
71
81
79
68
65
71
71
65
84
76
66
64
76
82
141
216
74
72
86
72
89
72
67
76
73
69
73
88
94
95
72
137
206
212
221
75
58
49
52
50
205
214
214
235
243
248
248
246
250
245
250
252
250
248
247
232
170
79
86
72
77
77
82
69
71
67
67
82
69
66
64
67
77
70
66
106
68
67
66
68
75
77
76
90
71
70
59
76
73
96
211
249
217
216
202
96
74
76
74
74
80
76
73
71
71
64
69
108
70
68
75
77
76
69
67
83
81
67
75
85
90
91
68
72
68
74
85
83
76
73
76
72
192
203
216
194
51
51
53
84
220
209
215
228
245
247
245
250
248
247
249
248
246
250
249
238
181
87
77
75
139
176
82
77
75
71
67
93
78
92
64
64
61
69
73
66
73
64
61
72
139
65
68
76
91
86
67
69
73
101
213
242
223
220
204
91
76
77
71
73
71
65
70
76
76
74
148
126
66
69
67
72
69
62
71
67
90
78
72
79
67
72
74
72
92
161
108
70
77
76
78
76
95
205
206
228
121
55
50
141
224
216
218
226
241
251
247
246
247
248
251
249
249
250
251
240
174
82
79
74
215
235
71
77
69
61
66
72
66
64
82
100
68
68
60
62
61
71
72
54
66
58
69
66
61
82
75
81
71
93
208
242
219
218
202
80
71
71
70
78
75
68
74
74
65
79
81
81
78
75
65
75
65
62
78
66
76
70
64
68
72
72
73
71
87
101
122
98
75
71
73
72
69
152
202
204
219
121
105
204
201
207
215
242
247
247
244
249
245
246
247
251
248
250
251
237
188
83
73
70
215
211
66
70
77
69
78
80
73
64
65
80
87
86
67
70
72
69
63
65
72
66
70
68
66
70
70
70
74
108
210
250
234
214
200
74
73
78
73
72
84
69
71
68
68
66
73
75
69
66
69
65
80
77
85
60
74
76
67
71
67
73
72
73
90
71
69
102
109
94
93
71
70
97
201
195
228
231
228
221
224
218
221
240
244
249
253
249
250
245
248
250
250
250
249
245
191
95
70
94
142
134
72
63
71
68
84
80
71
74
75
65
70
67
69
66
60
60
67
64
69
69
79
70
67
76
86
76
80
110
220
254
246
211
190
87
87
73
67
69
81
94
84
71
78
71
63
65
81
73
67
68
75
103
92
65
71
78
60
75
77
80
75
77
93
74
73
80
81
101
88
80
83
69
175
217
228
226
225
212
212
223
215
241
240
243
251
244
251
250
250
249
247
248
251
241
187
89
73
81
81
139
70
70
70
71
77
74
71
68
71
68
71
73
67
67
68
67
80
78
68
71
70
72
64
75
68
84
71
107
230
254
242
232
198
92
71
78
67
73
66
93
93
69
80
69
63
71
70
74
69
63
73
107
149
69
66
66
65
72
65
80
73
88
96
75
75
71
69
67
69
74
81
78
149
228
178
145
153
112
164
223
221
236
249
243
249
247
250
248
247
245
252
250
250
236
178
101
70
79
89
161
78
75
77
68
73
96
92
77
65
72
69
61
78
77
63
64
64
86
71
88
68
67
68
62
68
69
80
113
232
254
249
246
204
81
81
77
64
70
73
73
72
69
68
67
76
73
70
71
69
68
64
73
225
207
78
69
67
71
73
72
73
83
70
75
67
70
74
73
68
79
81
86
128
226
81
46
50
62
84
211
220
235
243
247
247
248
246
249
248
250
248
251
250
232
175
73
69
73
81
164
71
83
74
93
183
148
148
105
114
85
84
80
80
69
65
62
68
64
72
76
73
67
67
70
72
64
66
121
231
254
247
249
210
98
76
69
82
83
76
68
71
67
73
72
74
77
76
70
66
67
69
75
239
249
134
66
68
69
74
69
81
84
71
87
68
75
73
78
78
82
76
82
135
226
139
55
51
69
68
183
217
223
234
245
243
247
250
248
250
249
250
249
248
226
158
72
72
65
81
177
67
70
77
88
161
123
198
188
113
61
72
75
77
73
64
62
64
79
61
64
74
72
64
67
69
73
75
144
241
253
245
247
214
99
76
70
80
80
76
72
67
71
67
67
70
77
67
81
66
69
76
62
195
196
78
66
73
71
74
70
93
115
77
79
69
74
71
75
75
68
76
85
93
210
165
62
67
71
62
171
230
217
232
241
248
244
246
249
250
250
250
245
241
225
159
129
78
74
86
172
84
70
74
93
66
85
187
83
67
69
69
72
66
79
82
72
58
69
119
67
69
71
69
78
76
74
81
150
232
252
241
244
215
114
81
77
83
85
85
73
72
62
65
97
68
68
90
70
68
78
68
68
121
138
71
76
75
67
73
69
153
238
182
65
67
79
72
64
76
69
76
83
87
195
210
72
64
71
69
182
220
207
223
240
239
250
250
250
244
246
246
244
237
190
155
152
64
73
94
171
81
88
84
83
81
81
168
96
67
64
74
155
70
70
72
66
66
67
95
116
61
63
76
67
63
59
85
178
225
248
238
229
234
119
74
82
77
77
153
137
70
78
70
83
70
57
106
68
69
78
69
79
84
107
90
76
68
88
81
71
175
253
243
85
72
70
65
74
71
75
77
77
92
161
217
123
74
73
86
170
212
203
207
226
232
246
246
244
248
247
246
239
217
160
110
76
85
82
84
165
95
84
95
71
75
75
125
131
61
68
69
176
177
63
70
66
69
69
68
100
67
72
79
81
77
69
103
195
212
234
235
242
248
144
76
72
79
99
84
90
71
78
78
68
63
76
160
88
76
78
57
69
86
91
67
79
77
77
82
75
131
233
205
83
67
66
73
65
90
76
72
132
85
134
216
201
168
177
176
203
218
193
189
221
230
241
239
238
246
245
240
227
187
132
85
72
79
76
86
154
68
78
74
79
71
72
98
109
63
66
69
86
135
65
63
65
66
63
66
81
84
67
74
76
77
70
127
210
210
221
240
241
252
160
85
85
91
86
70
72
75
84
95
82
91
125
146
70
79
68
67
81
71
74
75
76
73
70
69
74
127
97
100
60
76
73
68
70
76
71
73
81
97
122
185
227
224
208
220
224
207
201
209
203
218
226
234
234
238
241
232
214
157
108
76
82
77
79
81
119
69
76
72
71
62
70
93
86
68
80
70
64
69
71
62
63
69
60
72
72
88
88
82
78
87
83
159
209
209
221
244
245
252
187
90
70
71
72
74
78
79
82
82
109
98
123
120
66
70
69
76
83
71
67
92
80
72
83
83
78
129
62
77
82
69
67
65
70
71
77
84
72
89
96
151
224
229
220
217
216
192
197
196
196
205
217
214
221
227
219
216
183
120
81
70
71
80
70
82
85
74
68
67
82
64
71
71
80
61
71
62
69
72
65
69
61
66
64
73
74
74
65
76
84
75
81
207
219
216
217
238
243
253
207
96
85
82
74
72
80
73
89
102
75
78
104
86
63
87
72
70
83
67
66
77
79
73
75
65
124
89
79
79
79
72
76
71
79
71
90
68
71
95
91
160
209
229
226
220
216
207
234
230
212
213
198
209
212
213
213
191
137
84
81
75
74
88
113
76
65
68
80
96
92
77
68
68
91
77
67
72
69
66
65
73
60
67
65
69
78
70
82
70
75
66
115
214
213
214
218
252
249
253
214
92
93
77
84
76
72
68
81
93
69
75
74
74
77
103
96
78
80
73
69
76
78
71
66
95
120
66
83
71
68
74
84
101
70
81
71
71
70
80
87
157
204
204
216
210
223
246
254
250
252
253
226
226
214
217
193
165
103
83
94
116
111
106
62
69
64
72
78
71
73
76
65
68
101
82
64
72
63
60
60
61
68
62
74
76
77
73
74
90
76
76
150
211
206
215
218
250
251
252
229
124
72
81
75
79
66
70
88
90
76
75
80
74
72
95
125
64
70
62
68
69
75
77
80
122
66
67
69
75
69
77
85
78
67
74
71
108
81
93
92
197
217
219
211
226
251
253
254
253
253
253
251
236
218
220
186
113
73
73
75
67
68
84
70
82
62
64
69
69
69
73
75
72
56
77
69
64
67
70
63
76
63
73
75
68
65
70
72
71
69
87
186
210
211
224
210
252
250
250
235
157
74
78
75
66
87
79
77
88
78
72
81
86
77
78
131
88
72
71
72
69
62
67
87
133
71
74
79
74
66
76
72
64
66
72
64
155
93
77
155
232
233
220
231
252
253
254
254
254
254
254
254
254
246
223
208
84
77
79
74
64
72
81
98
93
65
72
68
67
73
77
62
68
67
85
67
67
63
62
79
79
67
68
64
90
69
65
91
85
72
117
213
209
204
218
220
253
239
248
240
174
83
83
76
70
74
83
78
76
77
75
73
83
78
68
97
90
69
69
72
63
77
78
94
83
71
76
79
71
71
81
82
72
71
75
71
71
76
91
195
227
226
229
249
253
254
254
254
254
254
254
254
254
253
252
225
98
89
88
75
84
89
80
148
81
70
70
73
76
72
73
72
74
76
78
74
67
73
66
81
67
82
86
68
74
82
75
76
81
75
170
212
209
206
223
224
237
249
248
238
200
107
74
87
78
88
81
81
74
69
72
77
68
73
83
117
103
82
76
80
69
77
85
68
88
70
73
66
65
65
75
72
72
68
66
71
83
72
85
205
230
222
247
252
254
254
254
254
254
254
254
254
254
254
253
238
129
73
68
80
69
86
67
113
65
72
77
87
72
73
73
68
62
67
71
71
69
76
65
59
66
65
71
75
63
72
77
77
65
106
203
212
214
225
227
210
230
251
244
235
207
142
84
83
93
81
77
74
81
71
71
71
72
62
79
109
67
68
72
68
70
71
75
78
83
85
70
65
76
71
68
64
64
66
69
74
73
76
79
183
220
224
253
254
254
254
254
254
254
254
254
254
254
254
252
225
154
72
80
68
72
80
68
86
65
58
64
76
61
63
69
72
70
67
69
70
75
80
73
77
66
74
80
84
79
79
76
82
89
177
213
212
219
213
225
209
217
250
241
228
215
180
93
78
70
75
64
155
88
64
63
69
71
73
95
129
68
70
73
70
65
72
73
68
90
70
76
70
69
66
74
70
62
72
72
73
70
74
79
151
213
240
253
254
254
254
254
253
254
254
253
254
254
253
251
214
183
79
80
77
85
70
66
88
66
70
63
82
75
72
75
77
68
72
72
71
82
80
78
76
64
73
74
70
69
76
68
77
148
209
212
221
218
234
222
214
216
223
235
217
213
210
141
79
89
79
83
151
113
78
69
69
76
80
95
114
69
75
76
80
67
73
74
68
80
74
79
135
97
70
63
65
77
73
66
71
77
80
81
147
227
249
253
254
254
254
254
251
252
253
250
250
251
252
234
209
210
103
67
71
75
69
70
68
63
71
82
108
88
81
64
58
61
61
65
65
72
71
75
65
69
64
69
72
74
71
73
90
180
212
215
222
225
222
221
214
223
211
235
230
201
213
183
89
72
75
79
76
92
70
66
72
70
62
104
81
79
79
84
85
70
77
68
75
67
68
100
204
123
74
68
66
56
73
76
71
67
75
68
175
224
240
253
254
254
253
254
250
252
251
247
249
249
252
218
216
208
182
66
65
86
70
71
76
68
63
70
68
77
66
78
68
70
72
76
66
62
69
63
65
62
64
63
76
78
85
73
123
215
212
216
214
223
224
207
207
229
216
225
227
195
207
198
136
98
85
82
80
99
69
73
74
67
66
103
83
79
78
72
80
71
92
81
65
78
82
101
81
73
71
73
75
76
64
63
68
72
69
74
188
220
229
252
254
252
253
253
248
251
250
242
245
249
251
232
235
233
219
94
73
72
71
70
67
64
63
69
64
61
67
61
60
61
81
73
67
72
69
81
70
67
70
87
90
98
72
101
202
212
210
223
233
222
208
211
221
221
224
208
226
227
214
211
171
98
75
90
77
107
82
68
66
77
81
91
66
71
72
78
67
69
68
71
73
82
120
123
67
69
67
63
74
80
73
85
68
68
66
78
208
226
222
253
251
244
250
253
251
252
252
245
242
249
251
230
242
237
204
154
74
72
71
62
64
62
80
67
70
77
70
69
75
68
66
72
69
73
74
75
73
72
71
80
76
71
95
187
214
214
219
229
230
224
204
215
227
217
224
210
213
223
220
214
220
120
85
79
83
88
71
67
76
71
77
69
79
73
87
77
73
77
66
72
64
73
140
127
72
76
70
67
65
76
78
73
65
74
70
89
230
230
214
248
248
250
252
253
252
252
250
252
249
249
251
235
237
240
234
203
80
70
72
72
65
54
80
70
73
73
65
69
66
82
67
73
75
65
76
69
96
72
80
70
74
96
172
223
208
224
247
240
249
211
210
216
223
226
226
215
213
223
222
221
219
184
100
78
82
98
78
83
79
72
74
69
72
81
76
80
70
69
70
78
70
61
171
92
81
82
65
66
76
80
71
86
74
76
76
137
245
243
224
251
251
249
252
253
252
246
251
252
252
254
250
234
224
230
239
210
165
65
69
72
69
80
86
67
66
72
70
94
66
67
107
118
112
124
70
71
114
77
71
70
76
153
214
211
228
248
249
250
236
212
211
213
216
226
218
211
213
217
221
225
219
213
143
108
87
98
70
79
82
78
76
71
67
77
68
77
76
78
73
84
76
74
125
76
81
76
68
85
103
92
74
71
69
86
64
172
238
244
216
248
253
252
254
255
248
245
252
253
253
254
252
247
223
229
221
199
202
126
76
73
80
72
74
66
62
69
90
111
68
66
87
75
75
86
81
77
75
72
66
76
135
217
223
226
248
249
250
246
224
198
215
219
214
222
222
222
223
217
221
225
222
223
196
153
105
91
97
78
75
68
69
77
76
73
70
60
58
94
99
83
73
83
83
65
68
67
103
125
95
65
82
92
78
83
77
197
235
232
214
250
254
252
254
254
253
248
249
254
254
254
254
252
229
210
210
213
199
194
106
70
70
75
64
74
71
80
90
68
69
69
77
78
68
69
71
90
75
76
68
110
211
212
219
251
248
248
252
243
198
215
221
223
213
219
221
230
215
211
209
215
218
224
217
207
139
101
97
82
79
80
76
78
75
75
79
77
73
178
125
62
72
86
80
80
90
78
80
73
85
77
68
70
74
77
122
209
228
228
216
252
254
254
252
253
245
233
241
245
251
253
253
239
226
220
203
208
210
197
179
96
70
79
89
86
92
79
78
72
72
68
106
76
71
76
83
92
70
75
107
209
209
222
249
250
250
251
252
219
205
222
229
222
227
222
226
218
220
213
211
220
223
222
226
218
197
127
94
84
82
77
84
80
69
71
71
74
84
102
71
78
78
82
71
70
70
72
126
74
71
64
70
75
67
71
162
208
232
198
217
253
254
254
253
237
221
226
225
226
216
244
250
229
211
207
214
221
197
213
205
186
118
71
72
86
73
73
94
72
74
68
83
89
82
83
76
78
89
102
199
218
222
250
248
250
249
251
236
207
216
223
221
222
220
228
219
213
219
222
215
208
222
210
216
217
223
187
145
102
89
94
83
99
79
96
81
72
68
77
69
88
76
59
67
73
64
70
109
85
85
70
99
89
83
84
190
212
219
215
221
242
252
252
232
215
225
225
217
222
217
224
238
223
212
223
224
215
197
201
209
201
196
156
99
73
81
73
99
80
72
78
82
87
89
79
75
82
97
187
220
236
252
249
251
253
252
247
216
212
217
225
221
216
225
225
225
215
213
228
219
209
206
221
223
226
219
224
199
166
117
94
92
88
130
67
80
81
62
71
90
67
88
70
75
67
71
71
86
81
69
75
92
76
66
140
200
208
211
211
230
221
245
230
223
223
219
230
228
220
217
214
216
205
220
212
218
203
196
200
196
203
202
202
177
128
84
77
89
79
74
74
77
85
88
97
105
141
190
227
247
252
248
252
250
254
252
221
199
206
220
230
215
218
245
221
227
228
221
222
216
221
206
214
214
213
220
213
212
219
170
110
102
91
82
89
96
89
80
75
68
85
82
72
74
85
70
68
64
78
71
84
82
87
116
184
199
210
225
223
228
222
222
220
226
216
216
231
225
224
218
222
224
250
250
222
206
203
196
197
196
191
196
188
199
175
126
92
89
89
80
77
77
83
98
124
174
216
246
253
250
249
243
254
253
251
225
210
192
209
225
227
215
222
253
222
213
226
219
226
225
204
218
211
220
214
221
217
209
211
217
180
127
104
93
89
97
92
92
99
72
74
81
75
70
76
71
79
75
70
73
90
92
87
174
202
210
204
205
216
224
237
239
239
221
222
216
227
216
224
221
232
252
253
253
252
205
192
203
198
202
197
198
201
194
192
185
149
127
97
93
88
100
127
171
213
242
250
251
251
246
251
252
254
252
232
216
222
202
202
218
232
216
224
248
236
226
220
220
220
224
236
210
209
210
214
222
215
215
215
213
213
192
141
114
115
96
99
85
117
77
75
72
73
75
65
75
81
70
87
83
94
91
160
201
208
190
194
206
206
241
253
254
253
247
222
214
215
215
210
217
251
253
254
254
252
229
190
193
212
215
207
211
215
220
227
218
214
205
193
182
196
200
217
244
253
250
249
242
251
251
253
254
253
235
216
229
219
208
207
226
224
215
239
248
230
248
247
234
224
224
222
219
218
206
208
214
219
216
216
213
214
214
211
190
140
121
126
95
79
99
77
72
70
105
91
76
75
79
82
80
101
166
201
202
189
201
206
203
197
250
253
254
254
253
250
203
207
216
218
235
252
254
254
252
250
209
203
193
194
207
216
224
228
246
250
251
251
251
249
251
247
252
251
250
248
247
248
251
252
253
253
251
226
219
229
226
216
205
215
228
217
216
247
242
224
219
242
250
236
213
217
225
222
197
218
217
224
218
221
214
210
217
212
219
203
185
149
129
111
88
106
79
83
74
118
76
73
71
86
107
173
199
191
187
198
197
202
200
200
250
253
254
254
254
254
240
240
234
243
253
253
253
253
246
214
204
218
224
210
196
208
216
235
242
247
247
247
249
254
253
249
250
248
248
246
250
253
253
254
254
247
230
219
224
218
221
212
211
219
220
223
231
246
248
224
224
219
230
251
240
219
223
229
206
197
206
217
220
220
217
223
219
229
219
219
210
196
192
167
126
122
107
94
96
96
85
74
77
103
173
196
188
194
197
203
203
205
203
189
219
250
252
252
254
254
253
254
253
253
253
253
249
224
203
209
213
240
241
250
233
203
204
234
250
251
251
252
248
252
251
250
253
253
251
253
253
252
251
250
240
222
217
217
215
223
222
219
226
223
218
216
244
244
249
217
212
214
214
220
248
228
215
226
223
208
213
216
225
225
227
219
225
215
213
220
219
212
212
210
192
173
146
130
120
113
103
92
92
154
202
200
198
197
204
205
196
196
206
211
199
220
229
238
251
254
254
254
254
254
254
252
225
209
211
203
219
248
235
242
246
242
207
230
247
250
253
254
252
254
254
253
254
254
255
255
253
248
232
221
218
222
219
225
230
218
227
217
223
224
225
239
240
243
251
217
215
204
210
210
236
249
232
218
226
208
216
214
222
218
231
231
223
221
212
210
213
214
216
213
215
201
192
176
160
157
152
134
166
204
195
208
215
210
216
198
201
201
218
212
209
213
224
222
227
250
252
253
253
251
252
231
208
208
219
220
214
243
247
242
251
251
211
236
249
253
254
252
253
248
247
250
247
242
239
231
227
220
224
227
229
226
228
229
221
220
221
217
221
250
251
233
237
248
251
230
221
221
227
221
226
245
240
228
220
220
214
215
212
215
222
229
234
234
224
227
219
213
214
217
212
213
207
203
200
201
203
209
219
230
239
235
229
228
206
201
197
221
241
228
209
216
213
222
216
233
252
252
250
252
246
204
211
213
211
209
210
221
237
247
252
248
224
210
235
251
247
250
231
230
229
224
221
225
216
218
224
230
228
231
222
225
229
221
226
227
223
229
249
249
248
249
247
238
223
222
218
216
225
213
225
229
250
231
212
220
220
219
219
223
222
221
224
228
233
233
238
242
233
222
226
217
223
219
224
230
236
241
250
250
245
238
232
217
196
192
226
240
232
244
233
219
213
222
225
207
240
249
247
252
229
213
222
214
206
214
219
219
217
249
237
238
227
221
230
223
221
222
220
218
225
229
227
215
223
218
221
223
223
217
222
221
229
221
218
221
217
224
251
251
249
218
208
211
206
222
216
227
226
212
230
222
248
249
215
229
220
225
222
219
228
220
228
228
231
240
232
242
239
244
238
249
245
245
246
251
251
251
249
250
248
241
238
203
199
221
246
237
243
235
224
213
206
205
222
226
218
249
239
250
215
223
223
217
217
214
216
217
207
228
223
224
220
229
220
223
225
230
217
201
219
217
216
225
223
225
227
226
227
231
226
224
221
227
216
220
221
213
220
229
211
215
214
200
199
217
216
226
217
236
211
220
239
253
239
204
216
219
217
228
217
216
215
214
217
221
239
239
242
247
250
248
248
250
253
254
251
249
246
247
242
242
243
231
203
232
251
244
234
226
215
224
220
211
216
225
216
242
246
242
215
223
218
224
216
220
215
215
222
217
211
218
217
219
228
222
225
222
212
210
220
229
230
224
223
230
226
231
226
223
227
220
218
219
224
212
212
211
200
206
224
218
218
202
192
215
225
220
218
218
220
226
221
249
251
240
236
217
223
217
222
220
225
226
226
226
226
243
244
246
247
250
243
247
246
242
236
226
228
224
220
236
243
232
216
221
247
244
244
217
217
217
224
211
215
222
222
222
250
239
215
218
225
218
214
218
224
219
204
211
216
217
216
212
218
222
220
219
227
218
225
222
224
224
225
226
217
226
223
215
219
221
218
218
212
220
214
217
220
216
224
218
210
200
209
204
223
221
218
210
219
219
218
241
249
245
251
247
229
218
223
219
217
217
223
223
220
219
224
236
230
235
219
223
216
224
220
222
210
206
208
204
218
219
219
216
224
223
213
217
208
213
218
215
215
213
210
217
252
246
224
213
216
213
217
225
209
228
201
212
212
216
206
220
233
221
230
215
217
222
226
225
224
222
218
226
228
219
221
226
225
229
222
219
223
224
223
227
226
218
219
201
196
204
208
193
198
191
193
194
217
204
212
225
249
251
250
252
250
229
225
220
227
228
227
225
220
223
223
216
220
217
223
217
221
218
220
214
214
213
191
197
215
224
217
219
222
216
221
212
201
215
213
220
210
219
218
215
247
250
218
202
226
220
207
220
221
222
211
209
204
203
204
226
215
228
220
225
222
227
221
225
222
228
222
225
225
221
226
223
222
221
224
226
222
218
220
226
220
215
198
210
207
203
203
191
201
196
192
203
201
207
204
211
227
216
225
233
226
222
220
229
219
218
227
225
227
220
222
222
225
227
220
225
228
220
225
227
225
213
214
209
214
223
225
227
220
222
221
216
200
211
209
213
223
217
215
214
243
251
223
205
214
202
196
215
211
202
203
200
195
202
218
218
220
222
230
227
222
224
225
225
229
223
226
221
216
227
227
222
223
225
223
225
223
221
214
202
209
203
201
198
202
206
209
